<?xml version="1.0" standalone="no"?>
<!DOCTYPE svg PUBLIC "-//W3C//DTD SVG 1.1//EN" "http://www.w3.org/Graphics/SVG/1.1/DTD/svg11.dtd" >
<svg xmlns="http://www.w3.org/2000/svg">
<metadata></metadata>
<defs>
<font id="copperplate_condensed_ssiCn" horiz-adv-x="1251" >
<font-face units-per-em="2048" ascent="1638" descent="-410" />
<missing-glyph horiz-adv-x="625" />
<glyph horiz-adv-x="2048" />
<glyph horiz-adv-x="2048" />
<glyph unicode="&#xd;" horiz-adv-x="0" />
<glyph unicode=" "  horiz-adv-x="625" />
<glyph unicode="&#x09;" horiz-adv-x="625" />
<glyph unicode="&#xa0;" horiz-adv-x="625" />
<glyph unicode="!" horiz-adv-x="682" d="M170 1092v24h340v-24q-29 -7 -38.5 -18t-12.5 -36l-64 -553q-2 -20 -4 -34.5t-2 -22.5q0 -27 37 -27v-24h-172v24q37 0 37 27q0 12 -1 18t-2 15.5t-3 23.5l-64 553q-3 26 -13 36.5t-38 17.5zM209 121q0 54 38.5 92.5t92.5 38.5q55 0 93 -38t38 -93t-38 -94t-93 -39 q-54 0 -92.5 39.5t-38.5 93.5z" />
<glyph unicode="&#x22;" horiz-adv-x="682" d="M94 989q0 111 84 111t84 -111q0 -34 -4 -92l-33 -387q-2 -29 -11 -46.5t-36 -17.5t-36 17.5t-11 46.5l-33 387q-4 58 -4 92zM420 989q0 111 84 111t84 -111q0 -34 -4 -92l-33 -387q-2 -29 -11 -46.5t-36 -17.5t-36 17.5t-11 46.5l-33 387q-4 58 -4 92z" />
<glyph unicode="#" d="M123 326v110h223l41 215h-203v113h226l63 323h135l-63 -323h256l63 323h135l-61 -323h209v-113h-229l-41 -215h208v-110h-229l-63 -326h-142l64 326h-256l-64 -326h-135l64 326h-201zM481 436h256l41 215h-256z" />
<glyph unicode="$" d="M94 84l92 266l17 -6q8 -67 70 -108t145 -59.5t147 -18.5v309q-118 5 -213 30.5t-159 91.5t-64 181q0 102 67 177.5t168.5 114t200.5 38.5v129h123v-129q74 0 155 -16t158 -39t76 -23q21 0 45 18l19 -12l-135 -252l-17 6q-13 87 -102 118.5t-199 31.5v-279 q146 -16 237 -36.5t161.5 -83.5t70.5 -181q0 -89 -42.5 -157t-110.5 -111t-151.5 -67t-164.5 -29v-166h-123v166q-129 16 -208 38t-134.5 45t-66.5 23q-28 0 -39 -22zM334 776q0 -45 39.5 -69.5t90.5 -32.5t101 -8v266q-108 -6 -169.5 -36t-61.5 -120zM688 158 q99 0 181.5 40t82.5 128q0 77 -74.5 99t-189.5 30v-297z" />
<glyph unicode="%" horiz-adv-x="1821" d="M82 850q0 96 46.5 177.5t126 129t175.5 47.5t175.5 -47.5t126 -129t46.5 -177.5t-46.5 -177.5t-126 -129t-175.5 -47.5t-175.5 47.5t-126 129t-46.5 177.5zM238 850q0 -83 55 -140t137 -57q83 0 138 56.5t55 140.5q0 85 -54.5 141t-138.5 56q-83 0 -137.5 -56.5 t-54.5 -140.5zM375 -141l805 1345h125l-807 -1345h-123zM905 213q0 96 46.5 177.5t126 129t175.5 47.5q95 0 175.5 -47.5t127 -129t46.5 -177.5t-46.5 -177.5t-127 -129t-175.5 -47.5q-96 0 -175.5 47.5t-126 129t-46.5 177.5zM1061 213q0 -82 55 -139.5t137 -57.5 q83 0 138 56.5t55 140.5q0 85 -54.5 141t-138.5 56q-83 0 -137.5 -57t-54.5 -140z" />
<glyph unicode="&#x26;" horiz-adv-x="1479" d="M106 317q0 234 279 310v4q-66 20 -111 75t-45 121q0 90 54.5 152t139 91.5t175.5 29.5t175.5 -29.5t139 -91.5t54.5 -152q0 -68 -39 -122.5t-88 -71.5q31 -22 47 -49t37 -74t34 -61q40 69 94.5 127.5t107 98t77.5 44.5q27 13 27 24h20v-319h-20q-11 45 -45 45 q-42 0 -82 -61.5t-60 -122.5q34 -43 73.5 -70.5t70.5 -28.5q43 0 43 60h20v-258q-92 0 -161 21.5t-114.5 54t-80.5 73.5q-98 -84 -178.5 -116.5t-208.5 -32.5q-101 0 -203 35.5t-167 109t-65 184.5zM332 346q0 -97 74.5 -144.5t175.5 -47.5q78 0 145 45.5t76 99.5 q-27 37 -54.5 108t-59.5 101.5t-107 30.5q-100 0 -175 -47.5t-75 -145.5zM426 807q0 -68 48.5 -104.5t123.5 -36.5t123.5 36t48.5 105q0 68 -49 104.5t-123 36.5t-123 -37t-49 -104z" />
<glyph unicode="'" horiz-adv-x="455" d="M143 989q0 111 84 111t84 -111q0 -34 -4 -92l-33 -387q-2 -29 -11 -46.5t-36 -17.5t-36 17.5t-11 46.5l-33 387q-4 58 -4 92z" />
<glyph unicode="(" horiz-adv-x="797" d="M174 424q0 98 30 203t89 205t143.5 173t186.5 103v-41q-134 -72 -189 -221.5t-55 -421.5t55 -421.5t189 -221.5v-41q-135 41 -238 153.5t-157 255.5t-54 275z" />
<glyph unicode=")" horiz-adv-x="797" d="M174 -219q134 72 189 221t55 422t-55 422t-189 221v41q100 -29 186 -103t143.5 -171.5t88.5 -204t31 -205.5q0 -132 -54 -275t-157 -255.5t-238 -153.5v41z" />
<glyph unicode="*" horiz-adv-x="1024" d="M176 778l53 176l254 -159l9 6l-70 286h180l-70 -286l9 -6l254 159l53 -176l-289 -26l-6 -11l227 -192l-151 -115l-113 279h-8l-113 -279l-151 115l227 192l-6 11z" />
<glyph unicode="+" horiz-adv-x="1229" d="M164 375v162h371v372h159v-372h371v-162h-371v-375h-159v375h-371z" />
<glyph unicode="," horiz-adv-x="625" d="M106 -246q69 21 139 89t70 143q-4 18 -57 18t-90 35t-37 96q0 59 41 102.5t96 43.5q54 0 90.5 -26.5t56 -73.5t19.5 -107q0 -89 -46 -170.5t-121 -138t-161 -78.5v67z" />
<glyph unicode="-" horiz-adv-x="682" d="M98 369v174h486v-174h-486z" />
<glyph unicode="." horiz-adv-x="625" d="M166 135q0 61 42.5 103.5t102.5 42.5q62 0 104 -42t42 -104q0 -63 -42 -105t-104 -42q-60 0 -102.5 42.5t-42.5 104.5z" />
<glyph unicode="/" horiz-adv-x="569" d="M-45 -12l496 1112h161l-495 -1112h-162z" />
<glyph unicode="0" d="M57 545q0 155 75.5 283t205.5 200t287 72q156 0 287 -72.5t205.5 -200t74.5 -282.5q0 -156 -74.5 -284t-205.5 -200.5t-287 -72.5q-157 0 -287 72t-205.5 200.5t-75.5 284.5zM291 545q0 -106 43 -192.5t120 -136.5t171 -50q93 0 170 50t120 136.5t43 192.5t-43 192 t-120 135.5t-170 49.5q-69 0 -132 -29t-107 -78.5t-69.5 -120t-25.5 -149.5z" />
<glyph unicode="1" d="M369 725v260h24q0 -15 16.5 -24t36.5 -9q36 0 59 21.5t23 52.5q0 27 -11.5 36.5t-37.5 12.5v25h332v-25q-57 -7 -57 -45v-948q0 -57 53 -57v-25h-338v25q51 0 51 57v692q-39 0 -78 -10.5t-49 -38.5h-24z" />
<glyph unicode="2" d="M98 -31v80q0 148 98 246t294.5 200t268.5 150.5t72 130.5q0 78 -62.5 112t-145.5 34q-49 0 -122 -23.5t-125 -67t-52 -94.5q0 -10 6.5 -28.5t11.5 -22.5l-20 -14l-211 227l20 14q20 -12 35 -12q8 0 51 36.5t98.5 71.5t140 63t193.5 28q112 0 206 -34.5t152 -110 t58 -189.5q0 -133 -71.5 -212t-204 -134t-246.5 -100.5t-183 -108.5v-21h676q28 0 45 11t17 47h24v-281h-24q0 33 -62 33h-862q-51 0 -51 -31h-25z" />
<glyph unicode="3" d="M74 111l119 297l22 -13q-2 -8 -2 -28q0 -59 70 -105.5t165.5 -71t163.5 -24.5q63 0 127.5 14.5t112 53t47.5 100.5q0 85 -86.5 118t-189.5 33q-59 0 -90.5 -11t-43.5 -44h-24v281h24q9 -68 134 -68q54 0 110 13.5t96.5 47t40.5 87.5q0 131 -262 131q-70 0 -146 -21 t-127.5 -53.5t-51.5 -65.5q0 -24 8 -41l-19 -12l-163 211l24 18q13 -10 35 -10q5 0 42 27t89 55t133.5 49t192.5 21q86 0 165 -17t147 -54t107 -93t39 -135q0 -78 -43 -139.5t-116 -77.5v-4q88 -20 144 -83t56 -153q0 -130 -81.5 -209.5t-203 -113t-243.5 -33.5 q-146 0 -313 63q-45 18 -97 42t-61 24q-14 0 -33 -13z" />
<glyph unicode="4" d="M61 141v232l527 577q20 22 32 35.5t19.5 25t7.5 19.5q0 14 -7 18.5t-28 14.5v24h398v-24q-43 0 -43 -39v-659h65q29 0 43.5 9.5t14.5 39.5h24v-279h-24q0 32 -13.5 41.5t-44.5 9.5h-65v-104q0 -57 41 -57v-25h-310v25q56 0 56 57v104h-598q-38 0 -54 -10t-16 -35h-25z M291 365h463v512z" />
<glyph unicode="5" d="M92 166l162 215l18 -19q0 -6 -0.5 -11t-1.5 -11q0 -36 56.5 -77t143 -69t167.5 -28q113 0 197 47t84 154q0 109 -86 154.5t-203 45.5q-76 0 -160 -23.5t-84 -76.5q0 -10 6 -21l-12 -16l-254 252q29 22 36 31t7 28v285q0 17 -11 27t-28 10v24h842q61 0 61 37h25v-278h-25 q0 51 -61 51h-615v-225q164 61 318 61q87 0 169.5 -21.5t148.5 -63t108.5 -111t42.5 -158.5q0 -102 -47.5 -177.5t-127 -123t-173.5 -69t-185 -21.5q-181 0 -327 80q-51 29 -86.5 55.5t-49.5 26.5q-5 0 -30 -5z" />
<glyph unicode="6" d="M115 524q0 124 42.5 229.5t120.5 183.5t183 120.5t227 42.5q157 0 275 -47q24 -9 65.5 -28t52.5 -19q31 0 39 8l17 -15l-119 -223l-25 8q-10 31 -16 39q-24 36 -78 61t-113 36.5t-98 11.5q-156 0 -245 -82t-95 -240q102 54 188 79.5t191 25.5q103 0 197 -39.5 t152.5 -117.5t58.5 -183q0 -120 -75.5 -208.5t-190 -133.5t-232.5 -45q-161 0 -279.5 66t-180.5 188t-62 282zM381 356q0 -56 33 -99.5t91.5 -67t135.5 -23.5q116 0 188 52t72 138q0 56 -33 99.5t-91 67.5t-136 24t-136 -24t-91 -67.5t-33 -99.5z" />
<glyph unicode="7" d="M86 846v278h25q0 -37 61 -37h860q27 0 44.5 10.5t17.5 26.5h24v-184l-479 -780q-18 -28 -28.5 -43t-19.5 -31.5t-9 -28.5q0 -32 39 -32v-25h-369v25q17 0 40 16.5t38 40.5l514 815h-672q-28 0 -44.5 -10t-16.5 -41h-25z" />
<glyph unicode="8" d="M106 301q0 121 63 183.5t185 95.5v4q-85 17 -143.5 75t-58.5 144q0 171 136.5 234t329.5 63q114 0 223.5 -23t185 -88t75.5 -180q0 -93 -52.5 -147.5t-146.5 -79.5v2v-4q113 -22 176.5 -84.5t63.5 -173.5q0 -130 -86.5 -205t-209 -102t-243.5 -27q-118 0 -232 30.5 t-190 100.5t-76 182zM332 330q0 -172 293 -172t293 172q0 85 -73.5 127.5t-219.5 42.5q-293 0 -293 -170zM377 805q0 -49 26 -79t80 -43t144 -13q135 0 192.5 30.5t57.5 104.5q0 73 -58.5 104t-191.5 31q-131 0 -190.5 -31.5t-59.5 -103.5z" />
<glyph unicode="9" d="M115 92l123 230l24 -15q0 -29 14 -49q40 -49 123.5 -74.5t161.5 -25.5q157 0 243 81.5t97 241.5q-201 -104 -352 -104q-107 0 -206.5 34.5t-163.5 108t-64 182.5q0 133 74 222.5t192 132.5t246 43q148 0 263.5 -66t180 -185t64.5 -267q0 -131 -42 -242t-119.5 -189.5 t-187 -120.5t-239.5 -42q-148 0 -264 51q-30 13 -54 26t-37 19t-22 6q-23 0 -39 -12zM348 735q0 -98 74 -143t186 -45q114 0 187 45t73 143q0 99 -73 143t-187 44q-112 0 -186 -44t-74 -143z" />
<glyph unicode=":" horiz-adv-x="625" d="M166 135q0 61 42.5 103.5t102.5 42.5q62 0 104 -42t42 -104q0 -63 -42 -105t-104 -42q-60 0 -102.5 42.5t-42.5 104.5zM166 676q0 62 42.5 104.5t102.5 42.5q62 0 104 -42t42 -105q0 -60 -43 -103t-103 -43q-58 0 -101.5 43.5t-43.5 102.5z" />
<glyph unicode=";" horiz-adv-x="625" d="M106 -246q69 21 139 89t70 143q-4 18 -57 18t-90 35t-37 96q0 59 41 102.5t96 43.5q54 0 90.5 -26.5t56 -73.5t19.5 -107q0 -89 -46 -170.5t-121 -138t-161 -78.5v67zM131 676q0 61 42 104t103 43q62 0 104 -42t42 -105q0 -60 -43 -103t-103 -43q-59 0 -102 44t-43 102z " />
<glyph unicode="&#x3c;" horiz-adv-x="1229" d="M164 393v125l901 391v-153l-713 -301l713 -299v-156z" />
<glyph unicode="=" horiz-adv-x="1229" d="M164 193v161h901v-161h-901zM164 557v160h901v-160h-901z" />
<glyph unicode="&#x3e;" horiz-adv-x="1229" d="M164 0v156l713 299l-713 301v153l901 -391v-125z" />
<glyph unicode="?" horiz-adv-x="909" d="M121 985l18 19q13 -5 23 -5q20 0 66.5 39t102.5 64.5t156 25.5q78 0 147 -30.5t111.5 -90t42.5 -137.5q0 -68 -30.5 -123t-85.5 -114q-70 -75 -93.5 -105t-23.5 -73q0 -54 35 -54v-24h-230v24q30 0 35 60q8 79 34 129.5t67 99.5q52 63 70 91.5t18 70.5q0 55 -35.5 88 t-89.5 33q-72 0 -120 -39.5t-48 -71.5q0 -17 6 -37l-18 -14zM342 121q0 54 38.5 92.5t92.5 38.5q55 0 93 -38t38 -93t-38 -94t-93 -39q-54 0 -92.5 39.5t-38.5 93.5z" />
<glyph unicode="@" horiz-adv-x="1229" d="M59 520q0 126 45.5 233t127 185.5t186.5 120t223 41.5q109 0 205.5 -35t169 -99.5t112 -152t39.5 -188.5q0 -84 -36 -175t-104 -149.5t-157 -58.5q-69 0 -107 43t-38 71h-2h-4q-9 -26 -63 -68t-115 -46q-56 0 -105 45t-49 153q0 74 36.5 167.5t107 161t169.5 67.5 q49 0 67 -17.5t44 -60.5l14 53h117l-94 -393q-4 -20 -4 -35q0 -76 51 -76q44 0 83.5 50t63 126t23.5 142q0 68 -28.5 136t-83 123t-134.5 88.5t-178 33.5q-105 0 -199.5 -53.5t-154.5 -168t-60 -282.5q0 -82 34 -159.5t95 -136.5t138.5 -91.5t162.5 -32.5q96 0 164.5 20 t151.5 60l18 -78q-90 -45 -168 -70.5t-164 -25.5q-145 0 -261.5 49.5t-190.5 130t-111 174.5t-37 178zM522 463q0 -61 22.5 -97t55.5 -36q37 0 74.5 34.5t64.5 104t37 174.5q0 56 -13.5 81.5t-47.5 25.5q-38 0 -84 -38t-77.5 -104.5t-31.5 -144.5z" />
<glyph unicode="A" horiz-adv-x="1366" d="M43 0v37q37 4 72 80l379 803q36 72 36 90q0 32 -45 41v36h346v-36q-43 -10 -43 -41q0 -20 29 -76l426 -844q16 -33 68 -53v-37h-361v37q10 0 21.5 6.5t11.5 17.5q0 23 -16 56l-78 151h-500l-74 -145q-20 -48 -20 -64q0 -22 39 -22v-37h-291zM451 422h364l-172 385z" />
<glyph unicode="B" horiz-adv-x="1479" d="M170 0v37q57 0 57 37v940q0 37 -57 37v36h641q213 0 350 -68.5t137 -219.5q0 -90 -53.5 -143.5t-146.5 -88.5v-4q229 -67 229 -274q0 -83 -48 -148.5t-140.5 -103t-216.5 -37.5h-752zM461 190h391q122 0 182 39t60 109q0 45 -26 77.5t-79.5 50t-136.5 17.5h-391v-293z M461 662h391q104 0 158.5 25.5t54.5 98.5q0 72 -54.5 97.5t-158.5 25.5h-391v-247z" />
<glyph unicode="C" horiz-adv-x="1479" d="M111 545q0 134 51.5 237.5t143.5 175t209.5 107t250.5 35.5q159 0 338 -51q51 -15 97 -33.5t48 -18.5q9 0 29 27l31 -25l-160 -249l-21 14q0 5 -4 27q-9 44 -129.5 87.5t-228.5 43.5q-89 0 -165.5 -24.5t-137 -72.5t-94 -118.5t-33.5 -155.5q0 -115 58 -199.5t157 -129 t215 -44.5q83 0 180 25t162.5 64t65.5 77q0 9 -9 25l29 16l135 -219l-16 -16q-6 1 -10.5 1.5t-12.5 0.5q-6 0 -98 -46.5t-200.5 -82t-225.5 -35.5q-132 0 -248.5 35.5t-210 107.5t-145 176t-51.5 238z" />
<glyph unicode="D" horiz-adv-x="1479" d="M152 0v37q47 0 47 37v940q0 37 -47 37v36h679q114 0 211 -33.5t169.5 -100.5t112.5 -169t40 -239q0 -179 -70 -302.5t-190 -183t-273 -59.5h-679zM432 178h318q101 0 171.5 17.5t117 58.5t69 111t22.5 180q0 142 -40.5 221t-123.5 111t-216 32h-318v-731z" />
<glyph unicode="E" horiz-adv-x="1366" d="M176 0v37q15 0 26 9t11 28v940q0 18 -10.5 27.5t-26.5 9.5v36h934q78 0 78 52h37v-275h-37q0 45 -78 45h-664v-256h402q45 0 65.5 14.5t20.5 57.5h37v-324h-37q0 45 -21 59.5t-65 14.5h-402v-285h684q32 0 51 14.5t19 39.5h37v-289h-37q0 29 -17 37t-53 8h-954z" />
<glyph unicode="F" d="M135 0v37q53 0 53 37v940q0 37 -53 37v36h950q78 0 78 52h37v-275h-37q0 45 -78 45h-663v-256h401q86 0 86 45h37v-297h-37q0 45 -20.5 59.5t-65.5 14.5h-401v-401q0 -18 17 -27.5t44 -9.5v-37h-348z" />
<glyph unicode="G" horiz-adv-x="1479" d="M90 545q0 128 46.5 232t130.5 175t201.5 109.5t260.5 38.5q142 0 318 -41q23 -6 69 -18.5t64 -17.5t24 -5q9 0 20 4t17 9t12 9l25 -14l-121 -272l-41 12q4 8 4 25q0 38 -60.5 68.5t-152.5 46.5t-178 16q-78 0 -153 -22.5t-133.5 -68.5t-93 -118.5t-34.5 -171.5 q0 -191 122 -287t292 -96q200 0 369 61v178h-262q-29 0 -43.5 -13t-18.5 -52h-37v264h37q4 -33 18.5 -43t43.5 -10h512v-39q-32 -5 -43 -9.5t-15 -13t-4 -26.5v-234q0 -12 5.5 -19t17 -13t18.5 -9v-33q-222 -159 -598 -159q-141 0 -260 39t-202.5 110.5t-130 176 t-46.5 231.5z" />
<glyph unicode="H" horiz-adv-x="1593" d="M195 0v37q16 0 27 9t11 28v940q0 18 -10.5 27.5t-27.5 9.5v36h309v-36q-16 0 -26.5 -10.5t-10.5 -26.5v-352h659v352q0 37 -45 37v36h316v-36q-16 0 -26.5 -10.5t-10.5 -26.5v-940q0 -17 10.5 -27t26.5 -10v-37h-316v37q45 0 45 37v389h-659v-389q0 -17 10.5 -27 t26.5 -10v-37h-309z" />
<glyph unicode="I" horiz-adv-x="682" d="M170 0v37q53 0 53 37v940q0 37 -53 37v36h340v-36q-53 0 -53 -37v-940q0 -37 53 -37v-37h-340z" />
<glyph unicode="J" horiz-adv-x="1024" d="M-41 49l115 252l32 -12q11 -61 91 -98t165 -37q125 0 180.5 38.5t55.5 133.5v663q0 26 -23 44t-49 18v36h389v-36q-35 0 -59.5 -17.5t-24.5 -44.5v-684q0 -104 -58.5 -175.5t-161.5 -106.5t-240 -35q-100 0 -210.5 32.5t-127.5 32.5q-22 0 -43 -24z" />
<glyph unicode="K" horiz-adv-x="1366" d="M150 0v37q45 0 45 37v940q0 17 -12 27t-33 10v36h319v-36q-19 0 -30 -10t-11 -27v-393l424 337q61 52 61 66q0 27 -30 27v36h430v-36q-34 0 -74 -31l-471 -379l430 -502q67 -82 133 -102v-37h-379v37q27 0 27 14q0 11 -29 45l-350 408l-172 -133v-297q0 -18 11 -27.5 t30 -9.5v-37h-319z" />
<glyph unicode="L" d="M131 0v37q62 0 62 37v940q0 37 -62 37v36h352v-36q-57 0 -57 -37v-824h680q32 0 51 14.5t19 39.5h36v-289h-36q0 29 -17 37t-53 8h-975z" />
<glyph unicode="M" horiz-adv-x="1706" d="M180 0v37q18 0 29.5 9t11.5 28v944q0 33 -41 33v36h383v-36q-12 0 -22.5 -7t-10.5 -18q0 -7 9 -25.5t18 -35.5l293 -539l295 532q29 56 29 70q0 23 -27 23v36h379v-36q-41 0 -41 -33v-944q0 -18 11 -27.5t30 -9.5v-37h-322v37q56 0 56 37v688h-5l-411 -762h-6l-404 764 h-4v-690q0 -37 57 -37v-37h-307z" />
<glyph unicode="N" horiz-adv-x="1593" d="M186 0v37q39 0 39 37v940q0 18 -11 27.5t-28 9.5v36h351v-36q-17 0 -17 -21q0 -17 41 -57l588 -617v658q0 37 -53 37v36h309v-36q-17 0 -28 -10t-11 -27v-940q0 -37 39 -37v-37h-332v37q27 0 27 18q0 15 -33 49l-625 658v-688q0 -37 47 -37v-37h-303z" />
<glyph unicode="O" horiz-adv-x="1593" d="M135 545q0 177 99 303t252 189t311 63q157 0 310.5 -63t252 -189t98.5 -303q0 -179 -98.5 -305t-251.5 -189t-311 -63q-117 0 -233.5 35.5t-214 104.5t-156 175.5t-58.5 241.5zM360 545q0 -110 63.5 -194.5t165 -128.5t208.5 -44q80 0 158.5 25.5t140.5 72t99.5 115 t37.5 154.5t-37 154t-100.5 114.5t-140.5 71t-158 24.5q-109 0 -209.5 -43.5t-164 -127t-63.5 -193.5z" />
<glyph unicode="P" horiz-adv-x="1366" d="M156 0v37q75 0 75 37v940q0 37 -75 37v36h721q138 0 230 -32t141.5 -103.5t49.5 -185.5q0 -171 -108 -247.5t-313 -76.5h-412v-368q0 -37 65 -37v-37h-374zM465 633h436q164 0 164 133q0 131 -164 131h-436v-264z" />
<glyph unicode="Q" horiz-adv-x="1593" d="M135 545q0 177 99 303t252 189t311 63q157 0 310.5 -63t252 -189t98.5 -303q0 -93 -29 -174t-82 -144.5t-122 -109.5q18 -16 43 -45t45.5 -48.5t34.5 -19.5q23 0 41 16l26 -28l-237 -209l-25 16q16 22 16 41q0 12 -23 40.5t-58 66t-68 73.5q-108 -32 -223 -32 q-117 0 -233.5 35.5t-214 104.5t-156 175.5t-58.5 241.5zM360 545q0 -110 63.5 -194.5t165 -128.5t208.5 -44q48 0 84 8q-42 58 -79 90t-56 43.5t-46.5 26t-27.5 19.5q0 15 44.5 28t94.5 13q80 0 135 -32t144 -104q143 109 143 275q0 86 -37 154t-100.5 114.5t-140.5 71 t-158 24.5q-109 0 -209.5 -43.5t-164 -127t-63.5 -193.5z" />
<glyph unicode="R" horiz-adv-x="1479" d="M164 0v37q59 0 59 37v940q0 37 -59 37v36h700q434 0 434 -321q0 -130 -76 -205t-218 -102l272 -393q19 -29 70 -29v-37h-383v37q17 0 31 6.5t14 15.5q0 11 -33 62l-225 321h-293v-368q0 -37 61 -37v-37h-354zM457 604h354q254 0 254 154q0 151 -254 151h-354v-305z" />
<glyph unicode="S" horiz-adv-x="1366" d="M143 90l113 252l20 -10q0 -20 9 -35q20 -34 84 -64t143.5 -48.5t144.5 -18.5q108 0 219 33t111 116q0 82 -73 94.5t-304 29t-342.5 82.5t-111.5 237q0 65 30.5 126.5t93 110.5t157 77t216.5 28q102 0 180 -14.5t126 -30t108 -37t78 -21.5q29 0 41 13l24 -17l-141 -258 l-20 8q-3 25 -17 48q-20 29 -79 60.5t-137 51t-157 19.5q-103 0 -186.5 -32t-83.5 -93q0 -84 67.5 -98t305 -36t348.5 -86.5t111 -232.5q0 -192 -172.5 -274t-386.5 -82q-139 0 -224.5 21t-153 51t-85.5 30q-15 0 -27 -16z" />
<glyph unicode="T" d="M80 848v291h37q0 -26 15.5 -39t37.5 -13h909q22 0 38 13t16 39h36v-291h-36q0 27 -16 38t-38 11h-338v-823q0 -37 45 -37v-37h-315v37q14 0 25.5 9.5t11.5 27.5v823h-338q-22 0 -37.5 -11.5t-15.5 -37.5h-37z" />
<glyph unicode="U" horiz-adv-x="1479" d="M135 1051v36h336v-36q-45 0 -45 -37v-621q0 -126 80 -176.5t246 -50.5t245.5 50.5t79.5 176.5v621q0 37 -61 37v36h327v-36q-49 0 -49 -37v-611q0 -159 -60.5 -250t-180.5 -128t-310 -37q-188 0 -308.5 37t-181 128t-60.5 250v611q0 37 -58 37z" />
<glyph unicode="V" horiz-adv-x="1366" d="M47 1051v36h367v-36q-41 0 -41 -35q0 -13 6.5 -31.5t18.5 -43.5t34 -71l262 -569l256 561q5 11 30 63.5t31.5 68t6.5 24.5q0 33 -57 33v36h358v-36q-36 0 -51.5 -20t-34.5 -58l-363 -805q-43 -95 -43 -102q0 -14 19 -29v-37h-314v37q19 5 19 29q0 7 -53 122l-369 809 q-10 21 -29.5 33t-52.5 21z" />
<glyph unicode="W" horiz-adv-x="1933" d="M63 1051v36h318v-36q-31 0 -31 -39q0 -24 19 -72l219 -575h4l217 583q16 40 16 64q0 39 -26 39v36h350v-36q-27 0 -27 -33q0 -13 21 -70l219 -583h4l221 596q15 36 15 55q0 14 -10.5 24.5t-24.5 10.5v36h303v-36q-20 0 -29.5 -16.5t-30.5 -69.5l-294 -791 q-31 -78 -31 -100q0 -14 11.5 -25.5t27.5 -11.5v-37h-324v37q39 9 39 35q0 24 -31 96l-235 610h-4l-224 -598q-30 -79 -30 -102q0 -35 26 -41v-37h-317v37q37 0 37 26q0 22 -23 76l-327 854q-20 54 -48 58z" />
<glyph unicode="X" horiz-adv-x="1366" d="M86 0v37q40 0 61 8.5t43 36.5l359 463l-332 426q-35 45 -63.5 62.5t-67.5 17.5v36h446v-36q-18 0 -32.5 -9.5t-14.5 -23.5q0 -25 41 -78l168 -213l170 217q56 67 56 80q0 27 -56 27v36h416v-36q-49 0 -73 -7t-40 -26l-354 -443l340 -438q17 -23 33.5 -45t40.5 -38.5 t53 -16.5v-37h-412v37q33 0 33 33q0 21 -45 75l-188 248l-203 -256q-41 -53 -41 -71q0 -13 11 -21t28 -8v-37h-377z" />
<glyph unicode="Y" d="M23 1051v36h426v-36q-52 0 -52 -31q0 -14 28 -57t111 -164.5t113 -169.5l240 334q37 54 37 65q0 23 -56 23v36h359v-36q-26 0 -43 -7.5t-37 -29.5t-55 -72l-349 -500v-368q0 -37 48 -37v-37h-324v37q43 0 43 37v368l-395 559q-12 19 -43 34.5t-51 15.5z" />
<glyph unicode="Z" d="M100 0v57l662 852h-557q-62 0 -62 -57h-37v287h37q0 -52 62 -52h944v-57l-651 -840h557q32 0 44.5 10.5t12.5 35.5h37v-281h-37q0 45 -57 45h-955z" />
<glyph unicode="[" horiz-adv-x="797" d="M141 -276v1363h514v-94h-325v-1175h325v-94h-514z" />
<glyph unicode="\" horiz-adv-x="569" d="M-39 1100h160l512 -1112h-160z" />
<glyph unicode="]" horiz-adv-x="797" d="M141 -182h326v1175h-326v94h514v-1363h-514v94z" />
<glyph unicode="^" horiz-adv-x="1229" d="M217 430l322 657h151l322 -657h-160l-238 502l-237 -502h-160z" />
<glyph unicode="_" horiz-adv-x="1024" d="M0 -156h1024v-102h-1024v102z" />
<glyph unicode="`" horiz-adv-x="682" d="M33 1311h278l185 -297h-168z" />
<glyph unicode="a" horiz-adv-x="1139" d="M31 0v37q38 5 63 59l305 674q27 59 27 80q0 14 -16 22v37h309v-37q-4 -1 -9 -3.5t-8.5 -6t-3.5 -12.5t13 -35.5t16 -34.5l332 -704q15 -31 49 -39v-37h-291v31q11 0 22 7t11 21q0 12 -14 52l-56 116h-438l-57 -110q-19 -43 -19 -56q0 -24 39 -24v-37h-274zM403 381h312 l-166 348z" />
<glyph unicode="b" d="M143 0v37q47 0 47 31v774q0 15 -14 22.5t-33 7.5v37h637q145 0 224 -65.5t79 -163.5q0 -66 -39.5 -121.5t-95.5 -85.5v-2q66 -27 113 -86.5t47 -142.5q0 -106 -82.5 -174t-253.5 -68h-629zM387 154h361q89 0 126 29.5t37 86.5q0 66 -45.5 96.5t-150.5 30.5h-328v-243z M387 551h365q135 0 135 104q0 62 -37 82.5t-98 20.5h-365v-207z" />
<glyph unicode="c" horiz-adv-x="1139" d="M66 457q0 146 74.5 253t195 159.5t258.5 52.5q125 0 254 -48q17 -6 56.5 -21.5t55 -20.5t19.5 -5q8 0 18 7t15 10l24 -15l-135 -196l-22 16q0 6 -0.5 10t-1.5 9q0 16 -38.5 40.5t-102 43t-140.5 18.5q-97 0 -173.5 -36t-118.5 -105.5t-42 -167.5q0 -95 45.5 -168.5 t119.5 -112.5t155 -39q69 0 145 22.5t127 54.5t51 54q0 21 -2 39l23 21l151 -219l-20 -13q-19 13 -35 13q-12 0 -89 -36.5t-163 -62.5t-192 -26q-129 0 -247.5 55t-191.5 162t-73 252z" />
<glyph unicode="d" d="M137 0v37q47 0 47 31v774q0 30 -47 30v37h570q117 0 203.5 -37t141 -100.5t81 -144.5t26.5 -172q0 -120 -46 -224.5t-146.5 -167.5t-251.5 -63h-578zM381 154h266q72 0 127.5 11t97.5 41.5t66.5 92t24.5 162.5q0 130 -41 194.5t-107 83.5t-168 19h-266v-604z" />
<glyph unicode="e" horiz-adv-x="1139" d="M168 0v37q31 0 31 31v774q0 15 -9 22.5t-22 7.5v37h727q63 0 63 39h37v-231h-37q0 41 -63 41h-500v-207h316q38 0 52.5 6t14.5 27h37v-219h-41q0 19 -19.5 25.5t-60.5 6.5h-299v-243h525q24 0 40.5 11t16.5 30h37v-224h-37q0 29 -57 29h-752z" />
<glyph unicode="f" horiz-adv-x="1139" d="M154 872v37h794q64 0 64 39h37v-219h-37q0 29 -64 29h-555v-219h361q32 0 41.5 6.5t11.5 23.5h37v-217h-37q-2 19 -11.5 26t-41.5 7h-361v-317q0 -31 47 -31v-37h-282v37q39 0 39 31v774q0 30 -43 30z" />
<glyph unicode="g" d="M70 455q0 107 39 194t115 148t183.5 93t239.5 32q127 0 248 -45q30 -11 70 -28.5t49 -17.5q21 0 45 17l24 -12l-118 -226l-25 15q4 16 4 22q0 25 -45.5 54.5t-116.5 49t-141 19.5q-105 0 -190 -33t-135 -104.5t-50 -181.5q0 -107 53.5 -177t135.5 -101.5t168 -31.5 q196 0 311 60v131h-211q-54 0 -59 -45h-37v213h37q5 -33 59 -33h401v-37q-17 -7 -23.5 -18.5t-6.5 -30.5v-197q0 -17 5.5 -24.5t24.5 -16.5v-24q-36 -27 -98.5 -56t-159.5 -52t-219 -23q-132 0 -239.5 32.5t-183.5 94t-115 148t-39 192.5z" />
<glyph unicode="h" horiz-adv-x="1366" d="M180 0v37q31 0 31 31v774q0 30 -31 30v37h258v-37q-30 0 -30 -30v-291h548v291q0 15 -8 22.5t-22 7.5v37h258v-37q-31 0 -31 -30v-774q0 -31 31 -31v-37h-258v37q30 0 30 31v313h-548v-313q0 -31 30 -31v-37h-258z" />
<glyph unicode="i" horiz-adv-x="682" d="M184 0v37q58 0 58 31v774q0 30 -58 30v37h312v-37q-58 0 -58 -30v-774q0 -31 58 -31v-37h-312z" />
<glyph unicode="j" horiz-adv-x="909" d="M-14 41l102 238l29 -11q0 -45 12 -61q15 -24 75.5 -45t131.5 -21q93 0 134.5 30.5t41.5 109.5v540q0 21 -17.5 36t-33.5 15v37h305v-37q-22 0 -39.5 -15t-17.5 -36v-565q0 -141 -101 -204.5t-274 -63.5q-53 0 -100 12t-104.5 30.5t-76.5 18.5q-17 0 -43 -24z" />
<glyph unicode="k" horiz-adv-x="1139" d="M152 0v37q32 0 32 31v774q0 30 -32 30v37h268v-37q-39 0 -39 -30v-338q28 23 161.5 132t193 159.5t59.5 60.5t-11 16.5t-22 6.5v30h338v-37q-29 -10 -74 -47l-342 -278l324 -406q35 -47 59 -72t51 -32v-37h-303v37q23 0 23 12q0 13 -45 70l-252 309l-160 -129v-231 q0 -31 39 -31v-37h-268z" />
<glyph unicode="l" horiz-adv-x="1139" d="M156 0v37q53 0 53 31v774q0 30 -53 30v37h297v-37q-47 0 -47 -30v-688h552q25 0 41.5 11.5t16.5 31.5h37v-224h-37q0 27 -58 27h-802z" />
<glyph unicode="m" horiz-adv-x="1479" d="M190 0v37q25 3 25 37v757q0 28 -5 34.5t-20 6.5v37h285v-37q-20 0 -20 -18q0 -9 28 -59l250 -465l252 463q31 52 31 61q0 18 -17 18v37h289v-37q-28 0 -28 -26v-778q0 -15 9 -23t19 -8v-37h-237v37q36 0 36 31v581h-4l-348 -649h-16l-330 649h2h-4v-581q0 -31 35 -31v-37 h-232z" />
<glyph unicode="n" horiz-adv-x="1366" d="M166 0v37q37 0 37 31v774q0 15 -10.5 22.5t-26.5 7.5v37h301v-37q-14 -2 -14 -10q0 -7 45 -55l491 -526v561q0 30 -41 30v37h250v-37q-16 0 -26.5 -7.5t-10.5 -22.5v-774q0 -31 37 -31v-37h-266v37q14 0 14 10q0 6 -12 20t-51 58l-508 545v-602q0 -31 43 -31v-37h-252z " />
<glyph unicode="o" d="M80 455q0 113 42.5 203.5t117 148.5t172.5 86.5t213 28.5q116 0 213.5 -28.5t172.5 -86.5t116.5 -147t41.5 -205q0 -152 -72 -258t-196 -157.5t-276 -51.5t-276.5 52t-196.5 157.5t-72 257.5zM276 455q0 -70 28.5 -129t79 -101t112 -63t129.5 -21q67 0 129.5 21.5 t112.5 62.5t78 100.5t28 129.5t-28 129.5t-78 100.5t-111.5 63t-130.5 22q-90 0 -170.5 -39t-129.5 -110t-49 -166z" />
<glyph unicode="p" horiz-adv-x="1139" d="M137 0v37q51 0 51 31v774q0 30 -51 30v37h596q169 0 250.5 -61.5t81.5 -206.5q0 -144 -80.5 -203t-251.5 -59h-348v-311q0 -31 43 -31v-37h-291zM385 532h344q139 0 139 109q0 61 -38 89t-101 28h-344v-226z" />
<glyph unicode="q" d="M80 455q0 113 42.5 203.5t117 148.5t172.5 86.5t213 28.5q116 0 213.5 -28.5t172.5 -86.5t116.5 -147t41.5 -205q0 -131 -52 -225.5t-148 -151.5q101 -103 125 -103q22 0 41 11l20 -19l-221 -172l-16 25q20 25 20 39q0 16 -25.5 47t-95.5 106q-91 -24 -192 -24 q-152 0 -276.5 52t-196.5 157.5t-72 257.5zM276 455q0 -70 28.5 -129t79 -101t112 -63t129.5 -21q47 0 75 9q-50 68 -89 101t-75 55t-36 30q0 24 80 24q65 0 115.5 -32t148.5 -119q60 43 94.5 105t34.5 141q0 70 -28 129.5t-78 100.5t-111.5 63t-130.5 22q-90 0 -170.5 -39 t-129.5 -110t-49 -166z" />
<glyph unicode="r" d="M160 0v37q37 0 37 31v774q0 30 -37 30v37h565q191 0 289 -62.5t98 -205.5q0 -105 -68 -168.5t-165 -87.5l200 -297q27 -38 78 -51v-37h-313v37q26 0 26 18q0 19 -30 66l-162 244h-285v-297q0 -14 13 -22.5t26 -8.5v-37h-272zM397 518h324q201 0 201 127q0 53 -49.5 83 t-151.5 30h-324v-240z" />
<glyph unicode="s" horiz-adv-x="1139" d="M94 94l94 234l39 -11q0 -12 -0.5 -20t-1.5 -18q0 -38 60.5 -69.5t140 -50t125.5 -18.5q87 0 169.5 27t82.5 94q0 59 -59 73t-248 43t-281 82.5t-92 172.5q0 133 111 211t303 78q89 0 157.5 -14t117 -33t82 -35.5t44.5 -16.5q15 0 45 17l23 -23l-103 -194l-37 12 q-4 35 -22 49q-43 38 -128.5 62t-191.5 24q-88 0 -146.5 -24.5t-58.5 -79.5q0 -58 54.5 -71t247.5 -42.5t285.5 -85t92.5 -180.5q0 -110 -68 -177.5t-170.5 -94.5t-207.5 -27q-79 0 -161.5 20.5t-161.5 49t-83 28.5q-15 0 -24 -12z" />
<glyph unicode="t" horiz-adv-x="1024" d="M66 721v240h36q0 -52 45 -52h730q45 0 45 52h36v-240h-36q0 19 -13.5 28t-31.5 9h-267v-690q0 -31 37 -31v-37h-264v37q31 0 31 31v690h-267q-18 0 -31.5 -9t-13.5 -28h-36z" />
<glyph unicode="u" horiz-adv-x="1366" d="M152 872v37h292v-37q-45 0 -45 -30v-473q0 -66 32.5 -116t97 -76.5t161.5 -26.5q142 0 216.5 58.5t74.5 160.5v473q0 30 -51 30v37h284v-37q-45 0 -45 -30v-523q0 -66 -29 -125t-89.5 -106t-150 -73.5t-210.5 -26.5q-156 0 -265 45.5t-161.5 121.5t-52.5 164v523 q0 30 -59 30z" />
<glyph unicode="v" horiz-adv-x="1139" d="M47 872v37h289v-37q-25 0 -25 -26q0 -12 37 -96l236 -517l223 502q45 96 45 113q-3 24 -31 24v37h269v-37q-29 0 -52 -47l-299 -667q-17 -43 -31 -70.5t-14 -32.5q0 -12 37 -18v-37h-309v37q29 10 29 24q0 7 -4 16t-10 20t-14 27l-17 34l-312 676q-7 18 -20.5 28 t-26.5 10z" />
<glyph unicode="w" horiz-adv-x="1593" d="M33 872v37h260v-37q-27 0 -27 -28q0 -8 29 -86l180 -504h4l174 494q29 73 29 96q0 28 -33 28v37h293v-37q-37 0 -37 -24q0 -8 5.5 -26t13 -36t12.5 -32l180 -500l191 504q24 67 24 86q0 28 -33 28v37h261v-37q-35 0 -62 -75l-235 -631q-12 -30 -19 -48t-12.5 -32.5 t-5.5 -22.5q0 -26 28 -26v-37h-286v37q14 1 19 6.5t5 22.5q0 12 -28 91t-86 244.5t-84 249.5h-5q-8 -31 -115.5 -302t-107.5 -283q0 -17 6.5 -23t24.5 -6v-37h-252v37q21 0 21 16q0 10 -19 64l-270 717q-12 32 -43 38z" />
<glyph unicode="x" horiz-adv-x="1139" d="M78 0v37q39 0 61 31l312 387l-283 356q-51 61 -80 61v37h322v-37q-25 0 -25 -22q0 -13 43 -66l143 -176l156 193q33 38 33 55q0 16 -27 16v37h314v-37q-35 0 -54 -20l-309 -377l285 -360q10 -14 20.5 -27.5t19.5 -23t23.5 -18.5t28.5 -9v-37h-313v37q14 3 14 16 q0 10 -23 41l-178 223l-174 -217q-29 -35 -29 -49t19 -14v-37h-299z" />
<glyph unicode="y" horiz-adv-x="1139" d="M49 872v37h338v-37q-13 0 -24 -7t-11 -19q0 -9 3 -14.5t11 -16t13 -16.5l207 -273l182 256q24 33 30.5 44t6.5 22q0 24 -31 24v37h313v-37q-40 0 -106 -84l-313 -409v-311q0 -31 39 -31v-37h-273v37q37 0 37 31v319l-348 451q-27 34 -74 34z" />
<glyph unicode="z" horiz-adv-x="1139" d="M117 0v37l557 721h-469q-51 0 -51 -43h-37v243h37q0 -49 51 -49h815v-37l-571 -718h489q47 0 47 43h37v-224h-37q0 27 -47 27h-821z" />
<glyph unicode="{" horiz-adv-x="797" d="M150 403q116 53 116 183v280q0 94 27 141t90.5 63.5t181.5 16.5v-24q-58 -12 -84 -40t-26 -73v-342q0 -162 -154 -202v-5q154 -40 154 -202v-342q0 -45 26 -73t84 -40v-25q-118 0 -181 16.5t-90.5 64t-27.5 141.5v280q0 130 -116 182z" />
<glyph unicode="|" horiz-adv-x="455" d="M147 0v1087h160v-1087h-160z" />
<glyph unicode="}" horiz-adv-x="797" d="M231 -256q60 12 85.5 39.5t25.5 73.5v342q0 162 154 202v5q-77 20 -115.5 68.5t-38.5 133.5v342q0 46 -25.5 73.5t-85.5 39.5v24q118 0 182 -16.5t90.5 -63.5t26.5 -141v-280q0 -129 117 -183q-117 -52 -117 -182v-280q0 -94 -27 -141.5t-90.5 -64t-181.5 -16.5v25z" />
<glyph unicode="~" horiz-adv-x="1229" d="M141 432q91 178 256 178q83 0 228 -65q50 -24 81 -38t67.5 -26t60.5 -12q53 0 92.5 38t87.5 111l73 -141q-57 -82 -114.5 -130t-141.5 -48q-52 0 -94.5 16.5t-113.5 53.5q-127 71 -236 71q-106 0 -172 -149z" />
<glyph horiz-adv-x="1802" d="M0 264q2 89 61 156t152 67q23 0 36 -13t13 -36q0 -28 -48 -49.5t-71.5 -41.5t-23.5 -81q0 -65 49 -100t123 -35q2 1 4 1.5t4 0.5q70 0 138.5 26t113.5 75t45 114q0 50 -30 107t-88 143.5t-88 150.5t-30 130q0 201 197 376q89 81 204 138t218 57q70 0 117 -37t47 -106 q0 -22 -6 -43q88 80 202.5 136t219.5 56q70 0 116.5 -37t46.5 -106q0 -84 -59.5 -164t-146.5 -150q-72 -54 -145.5 -97.5t-123.5 -43.5q-19 0 -38 14t-19 33l2 4q0 40 70 66q110 36 206 110q73 59 109.5 113t36.5 92q0 31 -19 48.5t-53 17.5q-65 0 -150 -40t-147 -89 q-76 -58 -134 -146.5t-58 -173.5q0 -70 30.5 -134t90.5 -155.5t91 -151t31 -116.5q0 -92 -64 -164.5t-162 -111.5t-187 -39q-191 0 -262 110q-61 -54 -149 -85t-169 -31q-102 0 -170.5 33t-100.5 87t-32 115zM473 901q0 -55 20.5 -108t45 -94t76.5 -123t69 -119 q61 37 109 37q21 0 35 -14t14 -36q0 -19 -12.5 -29.5t-40 -21t-46.5 -22t-32 -36t-13 -77.5q6 -57 54 -89t118 -32q2 1 4 1.5t5 0.5q70 0 138.5 26t113.5 75t45 114q0 50 -30 107t-88 143.5t-88 150.5t-30 130q0 69 23 135q-5 -4 -14 -14t-13 -13q-65 -51 -142.5 -96 t-125.5 -45q-20 0 -39 14t-19 33l2 4q0 40 70 66q108 35 207 110q72 60 108.5 113.5t36.5 91.5q0 31 -19 48.5t-52 17.5q-64 0 -148.5 -39.5t-148.5 -89.5q-78 -59 -135.5 -147t-57.5 -173zM1300 86q0 60 68 212t151 281.5t115 129.5q16 0 27.5 -10.5t11.5 -28.5 q0 -15 -55.5 -101t-110.5 -193t-98 -251q-14 -50 -24 -69t-39 -19q-20 0 -33 15t-13 34zM1706 954q0 26 21 62t50.5 62t55.5 26q24 0 36.5 -13.5t12.5 -35.5q0 -27 -21.5 -63.5t-51.5 -62.5t-56 -26q-47 0 -47 51z" />
<glyph unicode="&#xa1;" horiz-adv-x="682" d="M172 0v25q29 7 38.5 17t12.5 36l64 553q2 14 3 23.5t2 15.5t1 18q0 27 -37 27v26h172v-26q-37 0 -37 -27q0 -8 2 -22.5t4 -34.5l64 -553q3 -25 12 -35.5t39 -17.5v-25h-340zM211 997q0 54 38.5 92.5t92.5 38.5q55 0 93 -38t38 -93t-38 -94t-93 -39q-54 0 -92.5 39.5 t-38.5 93.5z" />
<glyph unicode="&#xa2;" d="M182 406q0 117 59.5 213.5t161.5 152t218 55.5q84 0 124 -4l95 240h118l-104 -262q118 -37 182 -66l-84 -168q-75 72 -155 88l-195 -493q25 -12 66 -12q78 0 152.5 33.5t121.5 90.5l125 -143q-54 -17 -132 -55.5t-139 -57t-159 -18.5q-66 0 -96 10l-107 -270h-125 l125 301q-107 42 -179.5 145.5t-72.5 219.5zM371 401q0 -137 125 -206l186 475q-135 0 -223 -72.5t-88 -196.5z" />
<glyph unicode="&#xa3;" d="M84 -12v198q95 43 136.5 117t41.5 182q0 32 -8 84h-170v103h162q-8 52 -8 84q0 124 55.5 201t149 110t216.5 33q122 0 221 -34t160.5 -111t61.5 -199h-189q-11 98 -74 137t-167 39q-79 0 -128 -15.5t-75.5 -57t-26.5 -116.5q0 -31 9 -71h211v-103h-203 q0 -131 -35.5 -218.5t-132.5 -162.5l4 -4q113 52 237 52q46 0 148 -25t131 -25q85 0 122.5 57.5t37.5 145.5h196q0 -199 -96.5 -300t-275.5 -101q-26 0 -52.5 4t-52.5 9.5t-55.5 13.5t-46.5 12q-85 23 -121 31t-84 8q-42 0 -80 -11t-118.5 -39t-100.5 -28z" />
<glyph unicode="&#xa4;" d="M166 168l98 106q-90 113 -90 271q0 79 23 150.5t71 117.5l-102 107l88 90l102 -103q49 44 122 68t147 24q76 0 146 -23t120 -67l102 103l92 -94l-98 -101q43 -47 65.5 -120t22.5 -152q0 -164 -88 -275l96 -102l-84 -88l-102 108q-52 -48 -122.5 -74t-149.5 -26 q-164 0 -273 98l-100 -106zM336 545q0 -84 38 -152.5t104 -108.5t147 -40q80 0 146 39.5t104 108.5t38 153q0 82 -38 150.5t-104 108.5t-146 40q-81 0 -147 -40t-104 -108.5t-38 -150.5z" />
<glyph unicode="&#xa5;" d="M74 1051v36h389v-36q-47 0 -47 -31q0 -22 33 -74l198 -334l197 324q17 30 37 59t20 33q0 23 -51 23v36h328v-36q-33 0 -56 -21.5t-67 -87.5l-183 -285h265v-102h-332l-70 -109v-18h402v-102h-402v-252q0 -37 43 -37v-37h-297v37q18 0 29.5 9t11.5 28v252h-391v102h391v18 l-69 109h-322v102h254l-225 344q-11 18 -39.5 34t-46.5 16z" />
<glyph unicode="&#xa6;" horiz-adv-x="455" d="M147 0v414h160v-414h-160zM147 674v413h160v-413h-160z" />
<glyph unicode="&#xa7;" horiz-adv-x="1024" d="M106 598q0 87 63 137.5t155 50.5l4 7q-43 22 -77 74.5t-34 101.5q0 70 36.5 119.5t96.5 74.5t129 25q84 0 144 -24t102.5 -60.5t120.5 -114.5q-68 -32 -129 -80q-12 48 -41.5 84t-72.5 57t-93 21q-61 0 -107.5 -28.5t-46.5 -86.5q0 -72 66 -114t206.5 -101t215 -118.5 t74.5 -155.5q0 -49 -24 -90t-65 -64.5t-92 -23.5v-4q103 -75 103 -181q0 -77 -46 -132t-116.5 -82t-147.5 -27q-57 0 -103 18t-88.5 51t-93 83.5t-63.5 62.5q108 35 148 59q18 -75 73.5 -116t135.5 -41q65 0 113 35.5t48 97.5t-72.5 108t-219 112t-224.5 125t-78 140z M229 633q0 -46 62 -94t151 -88.5t168.5 -65.5t102.5 -25q94 0 94 86q0 54 -99.5 114t-226 103.5t-172.5 43.5q-30 0 -55 -21t-25 -53z" />
<glyph unicode="&#xa8;" horiz-adv-x="682" d="M49 1038v228h225v-228h-225zM408 1038v228h225v-228h-225z" />
<glyph unicode="&#xa9;" horiz-adv-x="1229" d="M76 543q0 115 41 218t113.5 178.5t171.5 118t212 42.5q115 0 214 -42.5t172 -118.5t113 -176.5t40 -219.5q0 -154 -70 -282t-194 -200.5t-275 -72.5q-113 0 -212 42t-172 118t-113.5 179t-40.5 216zM195 543q0 -127 54.5 -235.5t150.5 -171t214 -62.5q119 0 215 62.5 t150.5 171t54.5 235.5q0 128 -54 236t-150 171.5t-216 63.5q-117 0 -213 -63.5t-151 -173t-55 -234.5zM307 561q0 75 35 145.5t112.5 117t202.5 46.5q76 0 162 -28q33 -8 33 -33v-113h-33q-15 61 -52.5 99.5t-109.5 38.5q-58 0 -98.5 -33t-60 -92.5t-21.5 -139.5 q0 -290 182 -290q122 0 187 143h33l-23 -119q-3 -12 -10.5 -16.5t-36.5 -16.5q-95 -28 -164 -28q-157 0 -247.5 81.5t-90.5 237.5z" />
<glyph unicode="&#xaa;" horiz-adv-x="684" d="M0 547v24q23 2 39 35l182 402q17 37 17 47q0 6 -11 12v25h226v-25q-13 -7 -13 -12q0 -3 17 -41l200 -420q12 -19 27 -23v-24h-197v20q6 0 11.5 3.5t5.5 13.5q0 18 -6 30l-33 64h-258l-31 -60q-10 -23 -10 -32q0 -15 22 -15v-24h-188zM246 778h176l-92 195z" />
<glyph unicode="&#xab;" horiz-adv-x="1024" d="M131 453l242 305h178l-242 -305l240 -299h-178zM473 453l242 305h178l-242 -305l238 -299h-176z" />
<glyph unicode="&#xac;" horiz-adv-x="1229" d="M164 557v160h901v-522h-160v362h-741z" />
<glyph unicode="&#xad;" horiz-adv-x="682" d="M98 369v174h486v-174h-486z" />
<glyph unicode="&#xae;" horiz-adv-x="1229" d="M76 543q0 115 41 218t113.5 178.5t171.5 118t212 42.5q115 0 214 -42.5t172 -118.5t113 -176.5t40 -219.5q0 -154 -70 -282t-194 -200.5t-275 -72.5q-113 0 -212 42t-172 118t-113.5 179t-40.5 216zM195 543q0 -127 54.5 -235.5t150.5 -171t214 -62.5q119 0 215 62.5 t150.5 171t54.5 235.5q0 128 -54 236t-150 171.5t-216 63.5q-117 0 -213 -63.5t-151 -173t-55 -234.5zM356 258v33q35 2 49 7t17.5 17t3.5 43v400q0 30 -3.5 41.5t-17.5 16.5t-49 7v29h306q77 0 126.5 -39t49.5 -115q0 -54 -33 -98.5t-90 -60.5l90 -131q59 -85 102 -132v-18 h-131q-21 0 -42.5 32.5t-61 110.5t-64.5 117h-51v-160q0 -31 3.5 -43t17.5 -17t49 -7v-33h-271zM557 555h49q49 0 70.5 39t21.5 98q0 123 -90 123h-51v-260z" />
<glyph unicode="&#xaf;" horiz-adv-x="682" d="M6 1083v138h670v-138h-670z" />
<glyph unicode="&#xb0;" horiz-adv-x="819" d="M156 844q0 72 33.5 130.5t91 92t129.5 33.5q53 0 98 -18.5t82 -55.5t55.5 -83t18.5 -99q0 -72 -34 -130.5t-91.5 -92t-128.5 -33.5q-72 0 -129.5 33.5t-91 92t-33.5 130.5zM258 844q0 -63 43.5 -108.5t108.5 -45.5t108 45.5t43 108.5t-42.5 108t-108.5 45t-109 -45 t-43 -108z" />
<glyph unicode="&#xb1;" horiz-adv-x="1229" d="M164 0v162h901v-162h-901zM164 494v161h371v254h159v-254h371v-161h-371v-258h-159v258h-371z" />
<glyph unicode="&#xb2;" horiz-adv-x="750" d="M31 420v49q0 91 62.5 150t186 118t171 88t47.5 76q0 44 -32 64t-97 20q-66 0 -109 -22t-62.5 -47.5t-19.5 -32.5q0 -22 12 -31l-18 -12l-137 137l18 12q9 -6 23 -6q3 0 47.5 33t110 58.5t155.5 25.5q73 0 135 -21t100 -66.5t38 -113.5q0 -79 -50.5 -128.5t-134 -82.5 t-161 -63.5t-109.5 -67.5h434q39 0 39 33h20v-170h-16q0 20 -39 20h-561q-30 0 -33 -20h-20z" />
<glyph unicode="&#xb3;" horiz-adv-x="750" d="M14 508l80 178l19 -8q-1 -3 -3 -7t-2.5 -7l-1.5 -9q0 -15 36.5 -41t97.5 -45.5t127 -19.5q90 0 135 25.5t45 66.5q0 88 -164 88q-86 0 -92 -35h-21v176h21q5 -39 92 -39q70 0 107.5 21.5t37.5 58.5q-6 74 -157 74q-77 0 -146 -26t-69 -50q0 -18 4 -24l-17 -15l-106 127 l20 19q9 -6 23 -6q3 0 25.5 15.5t56.5 32.5t88 29.5t127 12.5q76 0 143.5 -18.5t111.5 -59.5t44 -102q0 -47 -29 -83t-76 -46v-5q59 -11 95 -48.5t36 -90.5q0 -78 -53 -126t-131 -68.5t-160 -20.5q-56 0 -100.5 10t-101.5 29q-27 9 -43 16t-34.5 15t-25.5 8t-22 -10z" />
<glyph unicode="&#xb4;" horiz-adv-x="682" d="M186 1014l187 297h276l-291 -297h-172z" />
<glyph unicode="&#xb5;" horiz-adv-x="1366" d="M152 872v37h292v-37q-45 0 -45 -30v-473q0 -66 32.5 -116t97 -76.5t161.5 -26.5q142 0 216.5 58.5t74.5 160.5v473q0 30 -51 30v37h284v-37q-45 0 -45 -30v-523q0 -66 -29 -125t-89.5 -106t-150 -73.5t-210.5 -26.5q-174 0 -291 57v-367q0 -30 45 -30v-37h-284v37 q51 0 51 30v1164q0 30 -59 30z" />
<glyph unicode="&#xb6;" horiz-adv-x="1229" d="M244 774q0 167 75 240t252 73h414v-36q-102 0 -102 -78v-1184h-127v1241h-119v-1241h-127v645q-85 0 -144.5 42.5t-90.5 118.5t-31 179z" />
<glyph unicode="&#xb8;" horiz-adv-x="682" d="M104 -414l37 82q85 -33 133 -33q123 0 123 84q0 37 -23 55.5t-61 18.5q-53 0 -88 -14l-45 39l135 182h101l-90 -121l4 -4q24 8 49 8q75 0 130.5 -41t55.5 -114q0 -70 -38 -114t-96.5 -62.5t-127.5 -18.5q-41 0 -99.5 16.5t-99.5 36.5z" />
<glyph unicode="&#xb9;" horiz-adv-x="750" d="M195 874v158h20q0 -20 35 -20q22 0 37.5 12.5t15.5 26.5q0 25 -33 28v21h215v-21q-36 -4 -36 -26v-557q0 -35 34 -35v-21h-219v21q33 0 33 35v407q-73 0 -82 -29h-20z" />
<glyph unicode="&#xba;" horiz-adv-x="752" d="M47 819q0 93 43.5 156t118 94t166.5 31t166.5 -31.5t117.5 -94t43 -155.5q0 -136 -92 -208t-235 -72q-142 0 -235 71.5t-93 208.5zM195 819q0 -76 53.5 -123t126.5 -47q72 0 126 47.5t54 122.5q0 76 -53.5 123t-126.5 47t-126.5 -47t-53.5 -123z" />
<glyph unicode="&#xbb;" horiz-adv-x="1024" d="M131 154l242 303l-238 301h176l240 -301l-242 -303h-178zM473 154l242 303l-240 301h178l240 -301l-242 -303h-178z" />
<glyph unicode="&#xbc;" horiz-adv-x="1876" d="M195 874v158h20q0 -20 35 -20q22 0 37.5 12.5t15.5 26.5q0 25 -33 28v21h215v-21q-36 -4 -36 -26v-557q0 -35 34 -35v-21h-219v21q33 0 33 35v407q-73 0 -82 -29h-20zM406 -12l870 1112h156l-871 -1112h-155zM1059 76v141l340 348q37 43 37 49q0 10 -23 19v20h264v-20 q-26 0 -26 -23v-391h43q18 0 27.5 5.5t9.5 23.5h20v-168h-20q0 21 -8.5 27t-28.5 6h-43v-60q0 -33 26 -33v-20h-200v20q34 0 34 33v60h-389q-43 0 -43 -37h-20zM1223 219h288v293z" />
<glyph unicode="&#xbd;" horiz-adv-x="1876" d="M195 874v158h20q0 -20 35 -20q22 0 37.5 12.5t15.5 26.5q0 25 -33 28v21h215v-21q-36 -4 -36 -26v-557q0 -35 34 -35v-21h-219v21q33 0 33 35v407q-73 0 -82 -29h-20zM328 -12l870 1112h156l-871 -1112h-155zM1079 -20v49q0 90 62.5 149t186 118t171 88t47.5 77 q0 84 -129 84q-65 0 -108 -22t-62.5 -48t-19.5 -33q0 -21 12 -30l-18 -13l-138 138l19 12q9 -6 22 -6q7 0 35 22t61 41t90 36t128 17q72 0 133 -20t100 -66t39 -114q0 -101 -71.5 -150t-208.5 -99t-175 -93h435q39 0 39 33h20v-170h-16q0 20 -39 20h-561q-30 0 -33 -20h-21z " />
<glyph unicode="&#xbe;" horiz-adv-x="1876" d="M51 508l80 178l19 -8q-7 -14 -7 -23q0 -15 36.5 -41t96.5 -45.5t127 -19.5q90 0 135.5 25.5t45.5 66.5q0 88 -164 88q-86 0 -92 -35h-21v176h21q5 -39 92 -39q70 0 107.5 21.5t37.5 58.5q-6 74 -157 74q-77 0 -146 -26t-69 -50q0 -18 4 -24l-17 -15l-106 127l20 19 q9 -6 23 -6q3 0 25.5 15.5t56.5 32.5t88 29.5t127 12.5q76 0 143.5 -18.5t111.5 -59.5t44 -102q0 -47 -29 -83t-76 -46v-5q59 -11 95 -48.5t36 -90.5q0 -78 -53 -126t-131 -68.5t-160 -20.5q-56 0 -100.5 10t-101.5 29q-20 7 -58 23t-45 16t-22 -10zM467 -12l870 1112h156 l-870 -1112h-156zM1059 76v141l340 348q37 43 37 49q0 10 -23 19v20h264v-20q-26 0 -26 -23v-391h43q18 0 27.5 5.5t9.5 23.5h20v-168h-20q0 21 -8.5 27t-28.5 6h-43v-60q0 -33 26 -33v-20h-200v20q34 0 34 33v60h-389q-43 0 -43 -37h-20zM1223 219h288v293z" />
<glyph unicode="&#xbf;" horiz-adv-x="909" d="M121 246q0 71 31.5 126.5t85.5 110.5q71 78 93.5 108t22.5 71q0 53 -35 53v26h230v-26q-30 0 -35 -60q-11 -124 -100 -229q-50 -59 -69 -89.5t-19 -72.5q0 -55 35 -87t90 -32q49 0 87 18.5t59 45t21 45.5t-6 37l19 14l157 -172l-18 -18q-16 4 -22 4q-20 0 -64.5 -38.5 t-102 -65.5t-159.5 -27q-120 0 -210.5 70.5t-90.5 187.5zM305 997q0 55 39 93t92 38q55 0 93 -38t38 -93t-38 -94t-93 -39q-53 0 -92 39t-39 94z" />
<glyph unicode="&#xc0;" horiz-adv-x="1366" d="M43 0v37q37 4 72 80l379 803q36 72 36 90q0 32 -45 41v36h346v-36q-43 -10 -43 -41q0 -20 29 -76l426 -844q16 -33 68 -53v-37h-361v37q10 0 21.5 6.5t11.5 17.5q0 23 -16 56l-78 151h-500l-74 -145q-20 -48 -20 -64q0 -22 39 -22v-37h-291zM350 1454h279l184 -297h-168z M451 422h364l-172 385z" />
<glyph unicode="&#xc1;" horiz-adv-x="1366" d="M43 0v37q37 4 72 80l379 803q36 72 36 90q0 32 -45 41v36h346v-36q-43 -10 -43 -41q0 -20 29 -76l426 -844q16 -33 68 -53v-37h-361v37q10 0 21.5 6.5t11.5 17.5q0 23 -16 56l-78 151h-500l-74 -145q-20 -48 -20 -64q0 -22 39 -22v-37h-291zM451 422h364l-172 385z M504 1157l186 297h277l-291 -297h-172z" />
<glyph unicode="&#xc2;" horiz-adv-x="1366" d="M43 0v37q37 4 72 80l379 803q36 72 36 90q0 32 -45 41v36h346v-36q-43 -10 -43 -41q0 -20 29 -76l426 -844q16 -33 68 -53v-37h-361v37q10 0 21.5 6.5t11.5 17.5q0 23 -16 56l-78 151h-500l-74 -145q-20 -48 -20 -64q0 -22 39 -22v-37h-291zM324 1157l221 297h227 l221 -297h-190l-144 186l-145 -186h-190zM451 422h364l-172 385z" />
<glyph unicode="&#xc3;" horiz-adv-x="1366" d="M43 0v37q37 4 72 80l379 803q36 72 36 90q0 32 -45 41v36h346v-36q-43 -10 -43 -41q0 -20 29 -76l426 -844q16 -33 68 -53v-37h-361v37q10 0 21.5 6.5t11.5 17.5q0 23 -16 56l-78 151h-500l-74 -145q-20 -48 -20 -64q0 -22 39 -22v-37h-291zM295 1174q19 110 66 169 t149 72q32 0 70.5 -10.5t89 -30t81.5 -29.5t58 -10q37 0 61.5 26t32.5 64h117q-21 -107 -75 -173t-154 -66q-24 0 -68.5 13.5t-89 29.5t-77.5 25.5t-58 9.5q-63 0 -88 -90h-115zM451 422h364l-172 385z" />
<glyph unicode="&#xc4;" horiz-adv-x="1366" d="M43 0v37q37 4 72 80l379 803q36 72 36 90q0 32 -45 41v36h346v-36q-43 -10 -43 -41q0 -20 29 -76l426 -844q16 -33 68 -53v-37h-361v37q10 0 21.5 6.5t11.5 17.5q0 23 -16 56l-78 151h-500l-74 -145q-20 -48 -20 -64q0 -22 39 -22v-37h-291zM367 1182v227h225v-227h-225z M451 422h364l-172 385zM725 1182v227h225v-227h-225z" />
<glyph unicode="&#xc5;" horiz-adv-x="1366" d="M43 0v37q37 4 72 80l379 803q36 72 36 90q0 32 -45 41v36h346v-36q-43 -10 -43 -41q0 -20 29 -76l426 -844q16 -33 68 -53v-37h-361v37q10 0 21.5 6.5t11.5 17.5q0 23 -16 56l-78 151h-500l-74 -145q-20 -48 -20 -64q0 -22 39 -22v-37h-291zM446 1366q0 89 61 151t150 62 t150 -62t61 -151q0 -90 -61.5 -151.5t-149.5 -61.5q-60 0 -107 28t-75.5 77.5t-28.5 107.5zM451 422h364l-172 385zM537 1366q0 -51 35 -86t85 -35q51 0 86 35t35 86t-35 86t-86 35q-50 0 -85 -35t-35 -86z" />
<glyph unicode="&#xc6;" horiz-adv-x="2048" d="M-41 0v37q31 11 46.5 29t68.5 98l504 762q22 32 31 45t15.5 26t6.5 27q0 17 -13.5 22t-39.5 5v36h1202q78 0 78 52h36v-287h-36q0 57 -78 57h-662v-256h400q44 0 65 15.5t21 56.5h36v-324h-36q0 45 -21 59.5t-65 14.5h-400v-285h682q32 0 51 14.5t19 39.5h37v-289h-37 q0 29 -17 37t-53 8h-956v37q16 0 28.5 9.5t12.5 27.5v295h-449l-164 -234q-18 -26 -24 -40t-6 -27q0 -23 39 -31v-37h-322zM526 522h359v383q0 80 -21 80q-18 0 -33.5 -18t-37.5 -54z" />
<glyph unicode="&#xc7;" horiz-adv-x="1479" d="M111 545q0 134 51.5 237.5t143.5 175t209.5 107t250.5 35.5q159 0 338 -51q51 -15 97 -33.5t48 -18.5q9 0 29 27l31 -25l-160 -249l-21 14q0 5 -4 27q-9 44 -129.5 87.5t-228.5 43.5q-89 0 -165.5 -24.5t-137 -72.5t-94 -118.5t-33.5 -155.5q0 -115 58 -199.5t157 -129 t215 -44.5q83 0 180 25t162.5 64t65.5 77q0 9 -9 25l29 16l135 -219l-16 -16q-6 1 -10.5 1.5t-12.5 0.5q-6 0 -98 -46.5t-200.5 -82t-225.5 -35.5q-132 0 -248.5 35.5t-210 107.5t-145 176t-51.5 238zM528 -414l37 82q85 -33 133 -33q123 0 123 84q0 37 -23 55.5t-61 18.5 q-53 0 -88 -14l-45 39l135 182h101l-90 -121l4 -4q24 8 49 8q75 0 130.5 -41t55.5 -114q0 -70 -38 -114t-96.5 -62.5t-127.5 -18.5q-41 0 -99.5 16.5t-99.5 36.5z" />
<glyph unicode="&#xc8;" horiz-adv-x="1366" d="M176 0v37q15 0 26 9t11 28v940q0 18 -10.5 27.5t-26.5 9.5v36h934q78 0 78 52h37v-275h-37q0 45 -78 45h-664v-256h402q45 0 65.5 14.5t20.5 57.5h37v-324h-37q0 45 -21 59.5t-65 14.5h-402v-285h684q32 0 51 14.5t19 39.5h37v-289h-37q0 29 -17 37t-53 8h-954zM399 1454 h279l184 -297h-168z" />
<glyph unicode="&#xc9;" horiz-adv-x="1366" d="M176 0v37q15 0 26 9t11 28v940q0 18 -10.5 27.5t-26.5 9.5v36h934q78 0 78 52h37v-275h-37q0 45 -78 45h-664v-256h402q45 0 65.5 14.5t20.5 57.5h37v-324h-37q0 45 -21 59.5t-65 14.5h-402v-285h684q32 0 51 14.5t19 39.5h37v-289h-37q0 29 -17 37t-53 8h-954zM553 1157 l186 297h277l-291 -297h-172z" />
<glyph unicode="&#xca;" horiz-adv-x="1366" d="M176 0v37q15 0 26 9t11 28v940q0 18 -10.5 27.5t-26.5 9.5v36h934q78 0 78 52h37v-275h-37q0 45 -78 45h-664v-256h402q45 0 65.5 14.5t20.5 57.5h37v-324h-37q0 45 -21 59.5t-65 14.5h-402v-285h684q32 0 51 14.5t19 39.5h37v-289h-37q0 29 -17 37t-53 8h-954zM373 1157 l221 297h227l221 -297h-190l-143 186l-146 -186h-190z" />
<glyph unicode="&#xcb;" horiz-adv-x="1366" d="M176 0v37q15 0 26 9t11 28v940q0 18 -10.5 27.5t-26.5 9.5v36h934q78 0 78 52h37v-275h-37q0 45 -78 45h-664v-256h402q45 0 65.5 14.5t20.5 57.5h37v-324h-37q0 45 -21 59.5t-65 14.5h-402v-285h684q32 0 51 14.5t19 39.5h37v-289h-37q0 29 -17 37t-53 8h-954zM416 1182 v227h225v-227h-225zM774 1182v227h225v-227h-225z" />
<glyph unicode="&#xcc;" horiz-adv-x="682" d="M33 1454h278l185 -297h-168zM170 0v37q53 0 53 37v940q0 37 -53 37v36h340v-36q-53 0 -53 -37v-940q0 -37 53 -37v-37h-340z" />
<glyph unicode="&#xcd;" horiz-adv-x="682" d="M170 0v37q53 0 53 37v940q0 37 -53 37v36h340v-36q-53 0 -53 -37v-940q0 -37 53 -37v-37h-340zM186 1157l187 297h276l-291 -297h-172z" />
<glyph unicode="&#xce;" horiz-adv-x="682" d="M6 1157l221 297h228l221 -297h-191l-143 186l-145 -186h-191zM170 0v37q53 0 53 37v940q0 37 -53 37v36h340v-36q-53 0 -53 -37v-940q0 -37 53 -37v-37h-340z" />
<glyph unicode="&#xcf;" horiz-adv-x="682" d="M49 1182v227h225v-227h-225zM170 0v37q53 0 53 37v940q0 37 -53 37v36h340v-36q-53 0 -53 -37v-940q0 -37 53 -37v-37h-340zM408 1182v227h225v-227h-225z" />
<glyph unicode="&#xd0;" horiz-adv-x="1479" d="M78 473v178h121v363q0 37 -47 37v36h679q114 0 211 -33.5t169.5 -100.5t112.5 -169t40 -239q0 -179 -70 -302.5t-190 -183t-273 -59.5h-679v37q47 0 47 37v399h-121zM432 178h318q101 0 171.5 17.5t117 58.5t69 111t22.5 180q0 142 -40.5 221t-123.5 111t-216 32h-318 v-258h332v-178h-332v-295z" />
<glyph unicode="&#xd1;" horiz-adv-x="1593" d="M186 0v37q39 0 39 37v940q0 18 -11 27.5t-28 9.5v36h351v-36q-17 0 -17 -21q0 -17 41 -57l588 -617v658q0 37 -53 37v36h309v-36q-17 0 -28 -10t-11 -27v-940q0 -37 39 -37v-37h-332v37q27 0 27 18q0 15 -33 49l-625 658v-688q0 -37 47 -37v-37h-303zM434 1174 q21 110 67 169t148 72q33 0 71.5 -11t93 -31.5t81.5 -29t53 -8.5q37 0 61.5 26t32.5 64h117q-46 -239 -229 -239q-24 0 -68.5 13.5t-89 29.5t-77.5 25.5t-58 9.5q-63 0 -88 -90h-115z" />
<glyph unicode="&#xd2;" horiz-adv-x="1593" d="M135 545q0 177 99 303t252 189t311 63q157 0 310.5 -63t252 -189t98.5 -303q0 -179 -98.5 -305t-251.5 -189t-311 -63q-117 0 -233.5 35.5t-214 104.5t-156 175.5t-58.5 241.5zM360 545q0 -110 63.5 -194.5t165 -128.5t208.5 -44q80 0 158.5 25.5t140.5 72t99.5 115 t37.5 154.5t-37 154t-100.5 114.5t-140.5 71t-158 24.5q-109 0 -209.5 -43.5t-164 -127t-63.5 -193.5zM489 1454h279l184 -297h-168z" />
<glyph unicode="&#xd3;" horiz-adv-x="1593" d="M135 545q0 177 99 303t252 189t311 63q157 0 310.5 -63t252 -189t98.5 -303q0 -179 -98.5 -305t-251.5 -189t-311 -63q-117 0 -233.5 35.5t-214 104.5t-156 175.5t-58.5 241.5zM360 545q0 -110 63.5 -194.5t165 -128.5t208.5 -44q80 0 158.5 25.5t140.5 72t99.5 115 t37.5 154.5t-37 154t-100.5 114.5t-140.5 71t-158 24.5q-109 0 -209.5 -43.5t-164 -127t-63.5 -193.5zM643 1157l186 297h277l-291 -297h-172z" />
<glyph unicode="&#xd4;" horiz-adv-x="1593" d="M135 545q0 177 99 303t252 189t311 63q157 0 310.5 -63t252 -189t98.5 -303q0 -179 -98.5 -305t-251.5 -189t-311 -63q-117 0 -233.5 35.5t-214 104.5t-156 175.5t-58.5 241.5zM360 545q0 -110 63.5 -194.5t165 -128.5t208.5 -44q80 0 158.5 25.5t140.5 72t99.5 115 t37.5 154.5t-37 154t-100.5 114.5t-140.5 71t-158 24.5q-109 0 -209.5 -43.5t-164 -127t-63.5 -193.5zM463 1157l221 297h227l222 -297h-191l-143 186l-146 -186h-190z" />
<glyph unicode="&#xd5;" horiz-adv-x="1593" d="M135 545q0 177 99 303t252 189t311 63q157 0 310.5 -63t252 -189t98.5 -303q0 -179 -98.5 -305t-251.5 -189t-311 -63q-117 0 -233.5 35.5t-214 104.5t-156 175.5t-58.5 241.5zM360 545q0 -110 63.5 -194.5t165 -128.5t208.5 -44q80 0 158.5 25.5t140.5 72t99.5 115 t37.5 154.5t-37 154t-100.5 114.5t-140.5 71t-158 24.5q-109 0 -209.5 -43.5t-164 -127t-63.5 -193.5zM434 1174q21 110 67 169t148 72q33 0 71.5 -11t93 -31.5t81.5 -29t53 -8.5q37 0 61.5 26t32.5 64h117q-46 -239 -229 -239q-24 0 -68.5 13.5t-89 29.5t-77.5 25.5 t-58 9.5q-63 0 -88 -90h-115z" />
<glyph unicode="&#xd6;" horiz-adv-x="1593" d="M135 545q0 177 99 303t252 189t311 63q157 0 310.5 -63t252 -189t98.5 -303q0 -179 -98.5 -305t-251.5 -189t-311 -63q-117 0 -233.5 35.5t-214 104.5t-156 175.5t-58.5 241.5zM360 545q0 -110 63.5 -194.5t165 -128.5t208.5 -44q80 0 158.5 25.5t140.5 72t99.5 115 t37.5 154.5t-37 154t-100.5 114.5t-140.5 71t-158 24.5q-109 0 -209.5 -43.5t-164 -127t-63.5 -193.5zM506 1182v227h225v-227h-225zM864 1182v227h226v-227h-226z" />
<glyph unicode="&#xd7;" horiz-adv-x="1229" d="M164 115l338 340l-338 342l112 112l338 -340l338 340l113 -112l-340 -342l340 -340l-113 -115l-338 342l-338 -342z" />
<glyph unicode="&#xd8;" horiz-adv-x="1593" d="M135 545q0 177 99 303t252 189t311 63q149 0 284 -53l150 206h137l-182 -254q124 -73 198 -187t74 -267q0 -179 -98.5 -305t-251.5 -189t-311 -63q-161 0 -299 59l-172 -237h-140l209 288q-118 72 -189 185t-71 262zM360 545q0 -174 154 -281l447 617q-76 28 -164 28 q-109 0 -209.5 -43.5t-164 -127t-63.5 -193.5zM616 213q85 -35 181 -35q80 0 158.5 25.5t140.5 72t99.5 115t37.5 154.5q0 93 -46 167t-122 119z" />
<glyph unicode="&#xd9;" horiz-adv-x="1479" d="M135 1051v36h336v-36q-45 0 -45 -37v-621q0 -126 80 -176.5t246 -50.5t245.5 50.5t79.5 176.5v621q0 37 -61 37v36h327v-36q-49 0 -49 -37v-611q0 -159 -60.5 -250t-180.5 -128t-310 -37q-188 0 -308.5 37t-181 128t-60.5 250v611q0 37 -58 37zM432 1454h279l184 -297 h-168z" />
<glyph unicode="&#xda;" horiz-adv-x="1479" d="M135 1051v36h336v-36q-45 0 -45 -37v-621q0 -126 80 -176.5t246 -50.5t245.5 50.5t79.5 176.5v621q0 37 -61 37v36h327v-36q-49 0 -49 -37v-611q0 -159 -60.5 -250t-180.5 -128t-310 -37q-188 0 -308.5 37t-181 128t-60.5 250v611q0 37 -58 37zM586 1157l186 297h277 l-291 -297h-172z" />
<glyph unicode="&#xdb;" horiz-adv-x="1479" d="M135 1051v36h336v-36q-45 0 -45 -37v-621q0 -126 80 -176.5t246 -50.5t245.5 50.5t79.5 176.5v621q0 37 -61 37v36h327v-36q-49 0 -49 -37v-611q0 -159 -60.5 -250t-180.5 -128t-310 -37q-188 0 -308.5 37t-181 128t-60.5 250v611q0 37 -58 37zM406 1157l221 297h227 l221 -297h-190l-144 186l-145 -186h-190z" />
<glyph unicode="&#xdc;" horiz-adv-x="1479" d="M135 1051v36h336v-36q-45 0 -45 -37v-621q0 -126 80 -176.5t246 -50.5t245.5 50.5t79.5 176.5v621q0 37 -61 37v36h327v-36q-49 0 -49 -37v-611q0 -159 -60.5 -250t-180.5 -128t-310 -37q-188 0 -308.5 37t-181 128t-60.5 250v611q0 37 -58 37zM449 1182v227h225v-227 h-225zM807 1182v227h225v-227h-225z" />
<glyph unicode="&#xdd;" d="M23 1051v36h426v-36q-52 0 -52 -31q0 -14 28 -57t111 -164.5t113 -169.5l240 334q37 54 37 65q0 23 -56 23v36h359v-36q-26 0 -43 -7.5t-37 -29.5t-55 -72l-349 -500v-368q0 -37 48 -37v-37h-324v37q43 0 43 37v368l-395 559q-12 19 -43 34.5t-51 15.5zM471 1157l186 297 h277l-291 -297h-172z" />
<glyph unicode="&#xde;" horiz-adv-x="1366" d="M156 0v37q75 0 75 37v940q0 37 -75 37v36h374v-36q-65 0 -65 -37v-129h412q206 0 313.5 -75.5t107.5 -246.5q0 -169 -108 -246t-313 -77h-412v-166q0 -37 65 -37v-37h-374zM465 430h436q164 0 164 133q0 131 -164 131h-436v-264z" />
<glyph unicode="&#xdf;" horiz-adv-x="2277" d="M94 94l94 234l39 -11q0 -12 -0.5 -20t-1.5 -18q0 -38 60.5 -69.5t140 -50t125.5 -18.5q87 0 169.5 27t82.5 94q0 59 -59 73t-248 43t-281 82.5t-92 172.5q0 133 111 211t303 78q89 0 157.5 -14t117 -33t82 -35.5t44.5 -16.5q15 0 45 17l23 -23l-103 -194l-37 12 q-4 35 -22 49q-43 38 -128.5 62t-191.5 24q-88 0 -146.5 -24.5t-58.5 -79.5q0 -58 54.5 -71t247.5 -42.5t285.5 -85t92.5 -180.5q0 -110 -68 -177.5t-170.5 -94.5t-207.5 -27q-79 0 -161.5 20.5t-161.5 49t-83 28.5q-15 0 -24 -12zM1233 94l94 234l39 -11q0 -12 -0.5 -20 t-1.5 -18q0 -38 60.5 -69.5t140 -50t125.5 -18.5q48 0 106 10t102 37t44 74q0 59 -59 73t-248 43t-281 82.5t-92 172.5q0 133 110 211t303 78q109 0 189.5 -21t141.5 -49.5t71 -28.5q13 0 45 17l22 -23l-102 -194l-37 12q-4 35 -23 49q-40 37 -126.5 61.5t-192.5 24.5 q-90 0 -147.5 -24.5t-57.5 -79.5q0 -58 54.5 -71t247.5 -42.5t285.5 -85t92.5 -180.5q0 -110 -68 -177.5t-170.5 -94.5t-207.5 -27q-78 0 -160.5 20t-162 49t-83.5 29q-15 0 -24 -12z" />
<glyph unicode="&#xe0;" horiz-adv-x="1139" d="M31 0v37q38 5 63 59l305 674q27 59 27 80q0 14 -16 22v37h309v-37q-4 -1 -9 -3.5t-8.5 -6t-3.5 -12.5t13 -35.5t16 -34.5l332 -704q15 -31 49 -39v-37h-291v31q11 0 22 7t11 21q0 12 -14 52l-56 116h-438l-57 -110q-19 -43 -19 -56q0 -24 39 -24v-37h-274zM238 1311h278 l184 -297h-168zM403 381h312l-166 348z" />
<glyph unicode="&#xe1;" horiz-adv-x="1139" d="M31 0v37q38 5 63 59l305 674q27 59 27 80q0 14 -16 22v37h309v-37q-4 -1 -9 -3.5t-8.5 -6t-3.5 -12.5t13 -35.5t16 -34.5l332 -704q15 -31 49 -39v-37h-291v31q11 0 22 7t11 21q0 12 -14 52l-56 116h-438l-57 -110q-19 -43 -19 -56q0 -24 39 -24v-37h-274zM391 1014 l187 297h276l-291 -297h-172zM403 381h312l-166 348z" />
<glyph unicode="&#xe2;" horiz-adv-x="1139" d="M31 0v37q38 5 63 59l305 674q27 59 27 80q0 14 -16 22v37h309v-37q-4 -1 -9 -3.5t-8.5 -6t-3.5 -12.5t13 -35.5t16 -34.5l332 -704q15 -31 49 -39v-37h-291v31q11 0 22 7t11 21q0 12 -14 52l-56 116h-438l-57 -110q-19 -43 -19 -56q0 -24 39 -24v-37h-274zM211 1014 l221 297h227l222 -297h-191l-143 186l-146 -186h-190zM403 381h312l-166 348z" />
<glyph unicode="&#xe3;" horiz-adv-x="1139" d="M31 0v37q38 5 63 59l305 674q27 59 27 80q0 14 -16 22v37h309v-37q-4 -1 -9 -3.5t-8.5 -6t-3.5 -12.5t13 -35.5t16 -34.5l332 -704q15 -31 49 -39v-37h-291v31q11 0 22 7t11 21q0 12 -14 52l-56 116h-438l-57 -110q-19 -43 -19 -56q0 -24 39 -24v-37h-274zM182 1030 q21 110 67.5 169.5t147.5 72.5q33 0 71.5 -11t93 -31.5t81.5 -29t53 -8.5q36 0 61.5 26t33.5 64h116q-46 -240 -229 -240q-24 0 -68.5 13.5t-89 29.5t-77.5 25.5t-58 9.5q-63 0 -88 -90h-115zM403 381h312l-166 348z" />
<glyph unicode="&#xe4;" horiz-adv-x="1139" d="M31 0v37q38 5 63 59l305 674q27 59 27 80q0 14 -16 22v37h309v-37q-4 -1 -9 -3.5t-8.5 -6t-3.5 -12.5t13 -35.5t16 -34.5l332 -704q15 -31 49 -39v-37h-291v31q11 0 22 7t11 21q0 12 -14 52l-56 116h-438l-57 -110q-19 -43 -19 -56q0 -24 39 -24v-37h-274zM254 1038v228 h225v-228h-225zM403 381h312l-166 348zM612 1038v228h226v-228h-226z" />
<glyph unicode="&#xe5;" horiz-adv-x="1139" d="M31 0v37q38 5 63 59l305 674q27 59 27 80q0 14 -16 22v37h309v-37q-4 -1 -9 -3.5t-8.5 -6t-3.5 -12.5t13 -35.5t16 -34.5l332 -704q15 -31 49 -39v-37h-291v31q11 0 22 7t11 21q0 12 -14 52l-56 116h-438l-57 -110q-19 -43 -19 -56q0 -24 39 -24v-37h-274zM334 1223 q0 87 61 150t150 63t150 -63t61 -150q0 -90 -61.5 -151.5t-149.5 -61.5q-60 0 -107.5 28.5t-75.5 77.5t-28 107zM403 381h312l-166 348zM424 1223q0 -51 35 -86t86 -35t86 35t35 86q0 52 -35 86t-86 34t-86 -34t-35 -86z" />
<glyph unicode="&#xe6;" horiz-adv-x="1821" d="M4 0v37q37 10 96 100l471 639q13 19 24 32t15 20.5t4 17.5q0 26 -41 26v37h1037q65 0 65 52h37v-248h-37q0 45 -65 45h-549v-207h371q38 0 38 31h37v-222h-37q0 37 -51 37h-358v-243h571q26 0 37.5 5.5t11.5 20.5h37v-205h-37q0 25 -63 25h-799v37q45 0 45 31v172h-485 l-86 -119q-31 -44 -31 -60q0 -24 39 -24v-37h-297zM487 393h377v393q0 41 -24 41q-23 0 -62 -53z" />
<glyph unicode="&#xe7;" horiz-adv-x="1139" d="M66 457q0 146 74.5 253t195 159.5t258.5 52.5q125 0 254 -48q17 -6 56.5 -21.5t55 -20.5t19.5 -5q8 0 18 7t15 10l24 -15l-135 -196l-22 16q0 6 -0.5 10t-1.5 9q0 16 -38.5 40.5t-102 43t-140.5 18.5q-97 0 -173.5 -36t-118.5 -105.5t-42 -167.5q0 -95 45.5 -168.5 t119.5 -112.5t155 -39q69 0 145 22.5t127 54.5t51 54q0 21 -2 39l23 21l151 -219l-20 -13q-19 13 -35 13q-12 0 -89 -36.5t-163 -62.5t-192 -26q-129 0 -247.5 55t-191.5 162t-73 252zM358 -414l37 82q85 -33 133 -33q123 0 123 84q0 37 -23 55.5t-61 18.5q-53 0 -88 -14 l-45 39l135 182h101l-90 -121l4 -4q24 8 49 8q75 0 130.5 -41t55.5 -114q0 -70 -38 -114t-96.5 -62.5t-127.5 -18.5q-41 0 -99.5 16.5t-99.5 36.5z" />
<glyph unicode="&#xe8;" horiz-adv-x="1139" d="M168 0v37q31 0 31 31v774q0 15 -9 22.5t-22 7.5v37h727q63 0 63 39h37v-231h-37q0 41 -63 41h-500v-207h316q38 0 52.5 6t14.5 27h37v-219h-41q0 19 -19.5 25.5t-60.5 6.5h-299v-243h525q24 0 40.5 11t16.5 30h37v-224h-37q0 29 -57 29h-752zM287 1311h278l185 -297h-168 z" />
<glyph unicode="&#xe9;" horiz-adv-x="1139" d="M168 0v37q31 0 31 31v774q0 15 -9 22.5t-22 7.5v37h727q63 0 63 39h37v-231h-37q0 41 -63 41h-500v-207h316q38 0 52.5 6t14.5 27h37v-219h-41q0 19 -19.5 25.5t-60.5 6.5h-299v-243h525q24 0 40.5 11t16.5 30h37v-224h-37q0 29 -57 29h-752zM440 1014l187 297h276 l-291 -297h-172z" />
<glyph unicode="&#xea;" horiz-adv-x="1139" d="M168 0v37q31 0 31 31v774q0 15 -9 22.5t-22 7.5v37h727q63 0 63 39h37v-231h-37q0 41 -63 41h-500v-207h316q38 0 52.5 6t14.5 27h37v-219h-41q0 19 -19.5 25.5t-60.5 6.5h-299v-243h525q24 0 40.5 11t16.5 30h37v-224h-37q0 29 -57 29h-752zM260 1014l221 297h228 l221 -297h-191l-143 186l-145 -186h-191z" />
<glyph unicode="&#xeb;" horiz-adv-x="1139" d="M168 0v37q31 0 31 31v774q0 15 -9 22.5t-22 7.5v37h727q63 0 63 39h37v-231h-37q0 41 -63 41h-500v-207h316q38 0 52.5 6t14.5 27h37v-219h-41q0 19 -19.5 25.5t-60.5 6.5h-299v-243h525q24 0 40.5 11t16.5 30h37v-224h-37q0 29 -57 29h-752zM303 1038v228h225v-228h-225 zM662 1038v228h225v-228h-225z" />
<glyph unicode="&#xec;" horiz-adv-x="682" d="M33 1311h278l185 -297h-168zM184 0v37q58 0 58 31v774q0 30 -58 30v37h312v-37q-58 0 -58 -30v-774q0 -31 58 -31v-37h-312z" />
<glyph unicode="&#xed;" horiz-adv-x="682" d="M184 0v37q58 0 58 31v774q0 30 -58 30v37h312v-37q-58 0 -58 -30v-774q0 -31 58 -31v-37h-312zM186 1014l187 297h276l-291 -297h-172z" />
<glyph unicode="&#xee;" horiz-adv-x="682" d="M6 1014l221 297h228l221 -297h-191l-143 186l-145 -186h-191zM184 0v37q58 0 58 31v774q0 30 -58 30v37h312v-37q-58 0 -58 -30v-774q0 -31 58 -31v-37h-312z" />
<glyph unicode="&#xef;" horiz-adv-x="682" d="M49 1038v228h225v-228h-225zM184 0v37q58 0 58 31v774q0 30 -58 30v37h312v-37q-58 0 -58 -30v-774q0 -31 58 -31v-37h-312zM408 1038v228h225v-228h-225z" />
<glyph unicode="&#xf0;" d="M66 389v154h118v299q0 30 -47 30v37h570q117 0 203.5 -37t141 -100.5t81 -144.5t26.5 -172q0 -120 -46 -224.5t-146.5 -167.5t-251.5 -63h-578v37q47 0 47 31v321h-118zM381 154h266q72 0 127.5 11t97.5 41.5t66.5 92t24.5 162.5q0 130 -41 194.5t-107 83.5t-168 19h-266 v-215h266v-154h-266v-235z" />
<glyph unicode="&#xf1;" horiz-adv-x="1366" d="M166 0v37q37 0 37 31v774q0 15 -10.5 22.5t-26.5 7.5v37h301v-37q-14 -2 -14 -10q0 -7 45 -55l491 -526v561q0 30 -41 30v37h250v-37q-16 0 -26.5 -7.5t-10.5 -22.5v-774q0 -31 37 -31v-37h-266v37q14 0 14 10q0 6 -12 20t-51 58l-508 545v-602q0 -31 43 -31v-37h-252z M319 1030q21 110 67.5 169.5t148.5 72.5q32 0 70.5 -10.5t89 -30t81.5 -29.5t58 -10q37 0 61.5 26t32.5 64h116q-21 -107 -75 -173.5t-154 -66.5q-24 0 -68.5 13.5t-89 29.5t-77.5 25.5t-58 9.5q-63 0 -88 -90h-115z" />
<glyph unicode="&#xf2;" d="M80 455q0 113 42.5 203.5t117 148.5t172.5 86.5t213 28.5q116 0 213.5 -28.5t172.5 -86.5t116.5 -147t41.5 -205q0 -152 -72 -258t-196 -157.5t-276 -51.5t-276.5 52t-196.5 157.5t-72 257.5zM276 455q0 -70 28.5 -129t79 -101t112 -63t129.5 -21q67 0 129.5 21.5 t112.5 62.5t78 100.5t28 129.5t-28 129.5t-78 100.5t-111.5 63t-130.5 22q-90 0 -170.5 -39t-129.5 -110t-49 -166zM317 1311h279l184 -297h-168z" />
<glyph unicode="&#xf3;" d="M80 455q0 113 42.5 203.5t117 148.5t172.5 86.5t213 28.5q116 0 213.5 -28.5t172.5 -86.5t116.5 -147t41.5 -205q0 -152 -72 -258t-196 -157.5t-276 -51.5t-276.5 52t-196.5 157.5t-72 257.5zM276 455q0 -70 28.5 -129t79 -101t112 -63t129.5 -21q67 0 129.5 21.5 t112.5 62.5t78 100.5t28 129.5t-28 129.5t-78 100.5t-111.5 63t-130.5 22q-90 0 -170.5 -39t-129.5 -110t-49 -166zM471 1014l186 297h277l-291 -297h-172z" />
<glyph unicode="&#xf4;" d="M80 455q0 113 42.5 203.5t117 148.5t172.5 86.5t213 28.5q116 0 213.5 -28.5t172.5 -86.5t116.5 -147t41.5 -205q0 -152 -72 -258t-196 -157.5t-276 -51.5t-276.5 52t-196.5 157.5t-72 257.5zM276 455q0 -70 28.5 -129t79 -101t112 -63t129.5 -21q67 0 129.5 21.5 t112.5 62.5t78 100.5t28 129.5t-28 129.5t-78 100.5t-111.5 63t-130.5 22q-90 0 -170.5 -39t-129.5 -110t-49 -166zM291 1014l221 297h227l222 -297h-191l-143 186l-146 -186h-190z" />
<glyph unicode="&#xf5;" d="M80 455q0 113 42.5 203.5t117 148.5t172.5 86.5t213 28.5q116 0 213.5 -28.5t172.5 -86.5t116.5 -147t41.5 -205q0 -152 -72 -258t-196 -157.5t-276 -51.5t-276.5 52t-196.5 157.5t-72 257.5zM262 1030q21 110 67.5 169.5t147.5 72.5q33 0 71.5 -11t93 -31.5t81.5 -29 t53 -8.5q37 0 61.5 26t32.5 64h117q-46 -240 -229 -240q-24 0 -68.5 13.5t-89 29.5t-77.5 25.5t-58 9.5q-63 0 -88 -90h-115zM276 455q0 -70 28.5 -129t79 -101t112 -63t129.5 -21q67 0 129.5 21.5t112.5 62.5t78 100.5t28 129.5t-28 129.5t-78 100.5t-111.5 63t-130.5 22 q-90 0 -170.5 -39t-129.5 -110t-49 -166z" />
<glyph unicode="&#xf6;" d="M80 455q0 113 42.5 203.5t117 148.5t172.5 86.5t213 28.5q116 0 213.5 -28.5t172.5 -86.5t116.5 -147t41.5 -205q0 -152 -72 -258t-196 -157.5t-276 -51.5t-276.5 52t-196.5 157.5t-72 257.5zM276 455q0 -70 28.5 -129t79 -101t112 -63t129.5 -21q67 0 129.5 21.5 t112.5 62.5t78 100.5t28 129.5t-28 129.5t-78 100.5t-111.5 63t-130.5 22q-90 0 -170.5 -39t-129.5 -110t-49 -166zM334 1038v228h225v-228h-225zM692 1038v228h226v-228h-226z" />
<glyph unicode="&#xf7;" horiz-adv-x="1229" d="M164 375v162h901v-162h-901zM485 82q0 53 39 92t90 39t90 -38t39 -93q0 -52 -39.5 -90.5t-89.5 -38.5t-89.5 39.5t-39.5 89.5zM485 827q0 51 39 91t90 40t90 -39t39 -92q0 -52 -39.5 -91.5t-89.5 -39.5t-89.5 40.5t-39.5 90.5z" />
<glyph unicode="&#xf8;" d="M57 -205l213 287q-57 38 -100 92t-66.5 124t-23.5 157q0 113 42.5 203.5t117 148.5t172.5 86.5t213 28.5q128 0 237 -37l166 221h129l-199 -266q99 -56 155 -153.5t56 -231.5q0 -152 -72 -258t-196 -157.5t-276 -51.5t-263 47l-178 -240h-127zM276 455q0 -136 103 -226 l381 516q-63 25 -135 25q-90 0 -170.5 -39t-129.5 -110t-49 -166zM467 176q75 -35 158 -35q67 0 129.5 21.5t112.5 62.5t78 100.5t28 129.5q0 76 -32.5 137.5t-88.5 101.5z" />
<glyph unicode="&#xf9;" horiz-adv-x="1366" d="M152 872v37h292v-37q-45 0 -45 -30v-473q0 -66 32.5 -116t97 -76.5t161.5 -26.5q142 0 216.5 58.5t74.5 160.5v473q0 30 -51 30v37h284v-37q-45 0 -45 -30v-523q0 -66 -29 -125t-89.5 -106t-150 -73.5t-210.5 -26.5q-156 0 -265 45.5t-161.5 121.5t-52.5 164v523 q0 30 -59 30zM375 1311h278l185 -297h-168z" />
<glyph unicode="&#xfa;" horiz-adv-x="1366" d="M152 872v37h292v-37q-45 0 -45 -30v-473q0 -66 32.5 -116t97 -76.5t161.5 -26.5q142 0 216.5 58.5t74.5 160.5v473q0 30 -51 30v37h284v-37q-45 0 -45 -30v-523q0 -66 -29 -125t-89.5 -106t-150 -73.5t-210.5 -26.5q-156 0 -265 45.5t-161.5 121.5t-52.5 164v523 q0 30 -59 30zM528 1014l187 297h276l-291 -297h-172z" />
<glyph unicode="&#xfb;" horiz-adv-x="1366" d="M152 872v37h292v-37q-45 0 -45 -30v-473q0 -66 32.5 -116t97 -76.5t161.5 -26.5q142 0 216.5 58.5t74.5 160.5v473q0 30 -51 30v37h284v-37q-45 0 -45 -30v-523q0 -66 -29 -125t-89.5 -106t-150 -73.5t-210.5 -26.5q-156 0 -265 45.5t-161.5 121.5t-52.5 164v523 q0 30 -59 30zM348 1014l221 297h228l221 -297h-191l-143 186l-145 -186h-191z" />
<glyph unicode="&#xfc;" horiz-adv-x="1366" d="M152 872v37h292v-37q-45 0 -45 -30v-473q0 -66 32.5 -116t97 -76.5t161.5 -26.5q142 0 216.5 58.5t74.5 160.5v473q0 30 -51 30v37h284v-37q-45 0 -45 -30v-523q0 -66 -29 -125t-89.5 -106t-150 -73.5t-210.5 -26.5q-156 0 -265 45.5t-161.5 121.5t-52.5 164v523 q0 30 -59 30zM391 1038v228h225v-228h-225zM750 1038v228h225v-228h-225z" />
<glyph unicode="&#xfd;" horiz-adv-x="1139" d="M49 872v37h338v-37q-13 0 -24 -7t-11 -19q0 -9 3 -14.5t11 -16t13 -16.5l207 -273l182 256q24 33 30.5 44t6.5 22q0 24 -31 24v37h313v-37q-40 0 -106 -84l-313 -409v-311q0 -31 39 -31v-37h-273v37q37 0 37 31v319l-348 451q-27 34 -74 34zM416 1014l186 297h277 l-291 -297h-172z" />
<glyph unicode="&#xfe;" horiz-adv-x="1139" d="M137 0v37q51 0 51 31v774q0 30 -51 30v37h291v-37q-43 0 -43 -30v-105h348q170 0 251 -62.5t81 -207.5q0 -144 -80.5 -203t-251.5 -59h-348v-137q0 -31 43 -31v-37h-291zM385 358h344q139 0 139 109q0 61 -38 89t-101 28h-344v-226z" />
<glyph unicode="&#xff;" horiz-adv-x="1139" d="M49 872v37h338v-37q-13 0 -24 -7t-11 -19q0 -9 3 -14.5t11 -16t13 -16.5l207 -273l182 256q24 33 30.5 44t6.5 22q0 24 -31 24v37h313v-37q-40 0 -106 -84l-313 -409v-311q0 -31 39 -31v-37h-273v37q37 0 37 31v319l-348 451q-27 34 -74 34zM279 1038v228h225v-228h-225z M637 1038v228h225v-228h-225z" />
<glyph unicode="&#x152;" horiz-adv-x="2048" d="M113 545q0 133 45.5 236.5t126.5 171t189 101t233 33.5h1101q78 0 78 48h37v-281h-37q0 55 -78 55h-606v-256h377q43 0 64.5 15t21.5 57h37v-330h-37q0 48 -21 64t-65 16h-377v-285h627q30 0 49.5 13.5t19.5 36.5h37v-285h-37q0 28 -16.5 36.5t-52.5 8.5h-1122 q-168 0 -303 60t-213 182.5t-78 302.5zM338 551q0 -116 43.5 -198.5t128.5 -122.5t205 -40q134 0 194 52.5t60 185.5v244q0 90 -27 142t-83 73.5t-144 21.5q-184 0 -280.5 -90.5t-96.5 -267.5z" />
<glyph unicode="&#x153;" horiz-adv-x="1933" d="M70 455q0 115 36.5 200.5t108 142.5t168.5 84t219 27h1081q66 0 66 52h37v-250h-37q0 25 -14.5 36t-51.5 11h-536v-207h358q72 0 72 35h37v-230h-37q0 41 -72 41h-358v-243h567q28 0 44 11.5t16 33.5h36v-236h-36q0 23 -14.5 30t-45.5 7h-1112q-236 0 -384 115.5 t-148 339.5zM266 455q0 -144 101.5 -222.5t240.5 -78.5q90 0 168.5 34t126 103t47.5 164t-47.5 164.5t-126 104t-168.5 34.5q-141 0 -241.5 -79.5t-100.5 -223.5z" />
<glyph unicode="&#x178;" d="M23 1051v36h426v-36q-52 0 -52 -31q0 -14 28 -57t111 -164.5t113 -169.5l240 334q37 54 37 65q0 23 -56 23v36h359v-36q-26 0 -43 -7.5t-37 -29.5t-55 -72l-349 -500v-368q0 -37 48 -37v-37h-324v37q43 0 43 37v368l-395 559q-12 19 -43 34.5t-51 15.5zM334 1182v227h225 v-227h-225zM692 1182v227h226v-227h-226z" />
<glyph unicode="&#x2c6;" horiz-adv-x="682" d="M6 1014l221 297h228l221 -297h-191l-143 186l-145 -186h-191z" />
<glyph unicode="&#x2dc;" horiz-adv-x="682" d="M-23 1030q21 110 67.5 169.5t148.5 72.5q32 0 70.5 -10.5t89 -30t81.5 -29.5t58 -10q35 0 60.5 26t33.5 64h116q-46 -240 -229 -240q-24 0 -68.5 13.5t-89 29.5t-77.5 25.5t-58 9.5q-63 0 -88 -90h-115z" />
<glyph unicode="&#x2000;" horiz-adv-x="789" />
<glyph unicode="&#x2001;" horiz-adv-x="1579" />
<glyph unicode="&#x2002;" horiz-adv-x="789" />
<glyph unicode="&#x2003;" horiz-adv-x="1579" />
<glyph unicode="&#x2004;" horiz-adv-x="526" />
<glyph unicode="&#x2005;" horiz-adv-x="394" />
<glyph unicode="&#x2006;" horiz-adv-x="263" />
<glyph unicode="&#x2007;" horiz-adv-x="263" />
<glyph unicode="&#x2008;" horiz-adv-x="197" />
<glyph unicode="&#x2009;" horiz-adv-x="315" />
<glyph unicode="&#x200a;" horiz-adv-x="87" />
<glyph unicode="&#x2010;" horiz-adv-x="682" d="M98 369v174h486v-174h-486z" />
<glyph unicode="&#x2011;" horiz-adv-x="682" d="M98 369v174h486v-174h-486z" />
<glyph unicode="&#x2012;" horiz-adv-x="682" d="M98 369v174h486v-174h-486z" />
<glyph unicode="&#x2013;" horiz-adv-x="1024" d="M0 375v162h1024v-162h-1024z" />
<glyph unicode="&#x2014;" horiz-adv-x="2048" d="M0 375v162h2048v-162h-2048z" />
<glyph unicode="&#x2018;" horiz-adv-x="569" d="M147 752q0 90 46 170.5t120.5 137.5t161.5 79v-68q-41 -11 -91.5 -47.5t-84 -85t-33.5 -98.5q4 -19 58 -19q52 0 89.5 -35t37.5 -96q0 -59 -41 -102t-97 -43q-51 0 -89.5 27t-57.5 73t-19 107z" />
<glyph unicode="&#x2019;" horiz-adv-x="569" d="M94 528v66q41 11 91.5 47.5t84 85t33.5 98.5q-4 19 -57 19t-90 35t-37 96q0 59 41 102t96 43q80 0 123 -57.5t43 -149.5q0 -88 -46 -169t-121 -138.5t-161 -77.5z" />
<glyph unicode="&#x201a;" horiz-adv-x="569" d="M94 -246q69 21 139 89t70 143q-4 18 -57 18t-90 35t-37 96q0 60 41 103t96 43q54 0 90.5 -26.5t56 -73.5t19.5 -107q0 -89 -46 -170.5t-121 -138t-161 -78.5v67z" />
<glyph unicode="&#x201c;" horiz-adv-x="1024" d="M117 752q0 65 27 129.5t72 116t105 89t123 52.5v-68q-67 -19 -137.5 -88.5t-70.5 -142.5q4 -19 57 -19q52 0 89.5 -35t37.5 -96q0 -59 -41 -102t-96 -43q-79 0 -122.5 57.5t-43.5 149.5zM610 752q0 90 46 170.5t120.5 137.5t161.5 79v-68q-41 -11 -91.5 -47.5t-84 -85 t-33.5 -98.5q4 -19 57 -19q34 0 63 -15t46.5 -45.5t17.5 -70.5q0 -59 -41 -102t-96 -43q-51 0 -89.5 27t-57.5 73t-19 107z" />
<glyph unicode="&#x201d;" horiz-adv-x="1024" d="M86 528v66q41 11 91.5 47.5t84 85t33.5 98.5q-4 19 -57 19t-90 35t-37 96q0 59 41 102t96 43q80 0 123 -57.5t43 -149.5q0 -88 -46 -169t-121 -138.5t-161 -77.5zM580 528v66q39 10 90 47t84.5 85.5t33.5 98.5q-4 19 -57 19q-52 0 -89.5 35t-37.5 96q0 58 41 101.5 t96 43.5q80 0 123 -57.5t43 -149.5q0 -88 -46 -169.5t-121.5 -139t-159.5 -76.5z" />
<glyph unicode="&#x201e;" horiz-adv-x="1024" d="M86 -246q69 21 139 89t70 143q-4 18 -57 18t-90 35t-37 96q0 60 41 103t96 43q52 0 89.5 -27t57 -73.5t19.5 -106.5q0 -89 -46 -170.5t-121 -138t-161 -78.5v67zM580 -246q43 13 91.5 48.5t82.5 84t34 99.5q-4 18 -57 18q-52 0 -89.5 35t-37.5 96q0 59 41 102.5t96 43.5 q54 0 90.5 -26.5t56 -73.5t19.5 -107q0 -65 -26 -129t-73 -117.5t-106.5 -89t-121.5 -51.5v67z" />
<glyph unicode="&#x2022;" horiz-adv-x="1024" d="M242 545q0 112 79 192t191 80q73 0 135.5 -37t97.5 -100t35 -135q0 -74 -35 -137t-96.5 -99.5t-136.5 -36.5q-113 0 -191.5 80t-78.5 193z" />
<glyph unicode="&#x2026;" horiz-adv-x="2048" d="M197 135q0 61 42.5 103.5t102.5 42.5q61 0 103 -42t42 -104q0 -63 -42 -105t-103 -42q-60 0 -102.5 42.5t-42.5 104.5zM879 135q0 61 42.5 103.5t102.5 42.5q61 0 103 -42t42 -104q0 -63 -42 -105t-103 -42q-60 0 -102.5 42.5t-42.5 104.5zM1561 135q0 61 42.5 103.5 t102.5 42.5q61 0 103 -42t42 -104q0 -63 -42 -105t-103 -42q-60 0 -102.5 42.5t-42.5 104.5z" />
<glyph unicode="&#x202f;" horiz-adv-x="315" />
<glyph unicode="&#x2039;" horiz-adv-x="682" d="M131 457l240 301h178l-240 -301l242 -303h-178z" />
<glyph unicode="&#x203a;" horiz-adv-x="682" d="M131 154l242 303l-238 301h176l240 -301l-242 -303h-178z" />
<glyph unicode="&#x205f;" horiz-adv-x="394" />
<glyph unicode="&#x2122;" horiz-adv-x="1618" d="M78 961v133h561v-133h-37q-23 96 -98 96h-70v-475q0 -33 3.5 -45t17.5 -17t57 -10v-37h-307v37q57 6 67.5 16.5t10.5 55.5v475h-68q-77 0 -100 -96h-37zM702 1057v37h222l209 -435l225 435h186v-37q-49 -1 -64.5 -16t-15.5 -54v-405q0 -33 3.5 -45t17.5 -17t57 -10v-37 h-305v37q54 6 65 16.5t11 55.5v336h-4l-219 -445h-23l-209 440l2 2h-4v-297q0 -62 13 -83.5t67 -24.5v-37h-205v37q52 3 64 23.5t12 84.5v361q-15 35 -43.5 56.5t-61.5 21.5z" />
<glyph unicode="&#xe000;" horiz-adv-x="910" d="M0 0v910h910v-910h-910z" />
</font>
</defs>
</svg>
